<?xml version="1.0" standalone="no"?>
<!DOCTYPE svg PUBLIC "-//W3C//DTD SVG 20010904//EN"
 "http://www.w3.org/TR/2001/REC-SVG-20010904/DTD/svg10.dtd">
<svg version="1.0" xmlns="http://www.w3.org/2000/svg"
 width="761.000000pt" height="343.000000pt" viewBox="0 0 761.000000 343.000000"
 preserveAspectRatio="xMidYMid meet">

<g transform="translate(0.000000,343.000000) scale(0.100000,-0.100000)"
fill="#000000" stroke="none">
<path d="M2505 3259 c-380 -23 -814 -71 -1125 -124 -181 -32 -175 -30 -190
-65 -7 -16 -22 -32 -33 -36 -28 -9 -101 -6 -166 6 -68 13 -91 13 -91 0 0 -5 6
-10 14 -10 8 0 24 -9 37 -19 l24 -20 -81 -75 c-174 -161 -337 -406 -449 -676
-15 -36 -38 -77 -52 -91 -36 -39 -54 -111 -59 -239 -2 -63 -7 -148 -10 -187
-4 -41 -3 -73 2 -73 5 0 7 -21 6 -47 -3 -43 -7 -50 -35 -63 -43 -20 -61 -74
-52 -159 10 -111 42 -158 111 -167 94 -11 93 -10 134 -124 30 -85 41 -106 59
-108 13 -2 23 -13 27 -30 57 -259 216 -448 404 -481 83 -15 140 -20 316 -27
149 -6 165 -5 227 15 63 21 164 85 196 125 16 19 62 18 491 -11 l244 -16 51
-40 c95 -75 151 -91 380 -104 288 -16 348 -8 452 61 38 25 39 25 173 16 74 -5
168 -11 207 -14 155 -10 263 36 309 131 25 51 27 60 21 156 l-5 102 32 -95
c75 -227 213 -391 408 -490 146 -73 211 -85 468 -84 228 0 316 10 429 49 99
34 156 63 240 123 l75 54 120 -6 c116 -7 120 -8 160 -41 60 -49 160 -93 237
-104 76 -11 278 -5 364 10 79 14 163 49 233 96 49 34 71 41 163 56 59 9 128
25 155 34 l49 19 6 58 c6 48 12 64 42 94 42 43 70 103 88 187 10 47 20 66 45
88 41 34 70 109 78 202 4 39 9 80 12 92 2 14 -3 30 -13 40 -12 12 -17 29 -15
52 3 30 -3 39 -52 85 l-56 51 0 72 c0 145 -53 335 -129 462 -49 82 -65 97
-175 160 -98 55 -138 69 -296 100 -177 35 -643 103 -1054 153 l-269 32 -271
229 c-299 253 -312 261 -543 341 -256 87 -653 188 -789 201 -39 3 -223 10
-408 15 l-337 8 -36 28 c-36 27 -38 28 -197 30 -89 1 -224 -2 -301 -7z m155
-33 c0 -23 -3 -24 -92 -30 -293 -19 -551 -38 -678 -51 -151 -16 -428 -51 -468
-60 -20 -5 -23 -2 -20 17 3 21 12 24 113 40 282 45 833 99 1083 106 59 2 62 1
62 -22z m1356 -111 c-8 -22 6 -26 26 -8 10 9 18 11 18 5 0 -5 8 -8 19 -5 10 3
22 -1 26 -8 6 -8 4 -10 -6 -4 -12 7 -12 5 -1 -6 11 -12 14 -12 22 1 7 11 12
12 21 3 6 -6 18 -9 27 -6 9 4 13 2 9 -4 -4 -6 3 -8 18 -5 15 2 25 0 25 -7 0
-7 4 -9 10 -6 11 7 95 -17 295 -82 265 -87 267 -88 547 -325 321 -272 298
-255 371 -263 169 -18 816 -106 1027 -140 341 -55 406 -72 513 -132 54 -30 97
-57 95 -58 -2 -2 -35 7 -72 21 -48 17 -72 22 -80 14 -7 -7 -5 -10 7 -10 9 0
17 -3 17 -7 0 -5 3 -18 6 -30 5 -19 3 -22 -15 -18 -12 2 -27 7 -34 12 -6 4
-25 9 -42 10 -106 8 -140 17 -130 33 3 5 1 11 -4 14 -9 6 -6 -58 4 -74 3 -6 4
-10 1 -10 -3 0 -13 16 -21 36 -10 25 -19 34 -30 30 -19 -7 -47 3 -39 15 3 5 0
9 -6 9 -6 0 -9 4 -5 10 7 12 35 2 32 -12 -1 -6 8 -11 20 -13 14 -1 19 3 16 11
-3 8 -10 12 -16 11 -7 -1 -11 3 -10 10 2 7 -4 10 -12 7 -8 -4 -15 -1 -15 5 0
6 -5 11 -10 11 -6 0 -9 -3 -9 -7 1 -5 0 -11 -1 -15 -1 -5 -3 -14 -4 -20 -1 -7
-10 -12 -21 -10 -11 2 -32 4 -47 5 -26 2 -26 3 -10 22 16 18 16 19 0 6 -9 -7
-21 -10 -27 -7 -5 3 -7 -4 -4 -16 2 -13 -7 0 -20 27 -32 64 -34 45 -4 -39 21
-57 57 -113 57 -88 0 5 -7 15 -15 22 -8 7 -14 22 -14 34 1 20 2 20 6 1 3 -11
9 -25 14 -31 9 -11 66 -28 83 -25 4 1 14 -3 22 -10 7 -6 18 -8 23 -5 5 4 12 2
16 -4 4 -6 11 -8 16 -4 6 3 17 -2 25 -12 9 -11 13 -14 10 -7 -4 6 -2 14 4 18
5 3 10 1 10 -5 0 -6 5 -8 10 -5 6 3 10 1 10 -5 0 -7 8 -9 20 -5 11 3 20 2 20
-3 0 -5 10 -8 23 -7 12 1 36 -3 52 -10 45 -17 60 -13 58 15 -1 24 -1 24 10 -2
6 -16 17 -28 24 -28 7 0 13 -5 13 -11 0 -5 4 -8 9 -5 4 3 22 1 39 -3 17 -5 33
-6 35 -3 2 4 3 2 1 -5 -4 -17 8 -24 22 -12 7 6 19 7 26 3 7 -5 19 -9 27 -9 8
0 16 -6 19 -14 3 -11 0 -12 -14 -6 -11 4 -34 9 -52 10 -19 2 -39 8 -44 13 -6
6 -16 8 -23 6 -7 -3 -16 -1 -19 5 -4 6 -13 8 -20 5 -8 -3 -17 -1 -20 5 -4 6
-12 8 -20 5 -7 -3 -33 0 -57 6 -24 6 -52 11 -61 11 -10 0 -20 4 -23 9 -3 5
-19 7 -35 5 -17 -2 -30 -1 -30 4 0 4 -6 8 -12 9 -30 4 -63 10 -63 12 0 1 -15
3 -34 5 -19 2 -38 10 -42 17 -7 11 -9 11 -9 0 0 -7 -5 -10 -10 -7 -6 4 -7 12
-3 18 4 7 1 7 -9 -1 -10 -8 -14 -20 -11 -30 6 -15 5 -15 -10 -3 -15 12 -17 12
-11 -2 3 -8 12 -18 20 -21 8 -3 14 -12 14 -20 0 -13 43 -31 67 -27 6 1 14 -3
18 -8 3 -6 13 -7 22 -4 11 4 14 3 9 -6 -5 -7 -15 -9 -25 -6 -34 14 -52 14 -58
0 -3 -8 -9 -15 -14 -15 -4 0 -6 6 -3 14 3 8 1 17 -4 20 -16 10 -22 -22 -6 -34
8 -7 14 -20 14 -29 0 -33 24 -52 75 -57 28 -3 55 -12 61 -20 13 -16 29 -19 19
-4 -4 7 6 10 25 8 17 -1 34 -6 36 -10 3 -5 10 -6 15 -2 5 3 16 0 24 -6 8 -6
18 -9 23 -6 4 2 26 0 48 -5 21 -6 50 -10 65 -10 23 1 25 -3 26 -41 0 -26 -1
-32 -4 -15 -3 18 -10 27 -24 27 -10 0 -19 5 -19 12 0 6 -3 8 -7 5 -3 -4 -13
-1 -21 6 -13 9 -14 9 -8 0 11 -20 -25 -16 -41 5 -8 9 -12 12 -9 6 7 -15 -42
-15 -51 -1 -4 6 -1 7 7 2 9 -5 11 -4 6 4 -12 19 -26 2 -27 -32 -1 -26 -3 -27
-6 -8 -3 13 -14 33 -25 45 -12 11 -18 16 -15 10 4 -7 -7 -10 -31 -9 -52 3 -54
4 -46 18 6 8 3 8 -9 -1 -17 -15 -61 -7 -52 9 4 5 2 9 -3 9 -15 0 -21 -25 -12
-41 5 -8 5 -16 -2 -20 -5 -4 -18 -30 -28 -58 l-17 -52 -7 53 c-20 155 -73 357
-123 469 l-25 57 -101 21 c-438 92 -1183 171 -1752 186 -260 7 -337 13 -329
27 4 7 0 7 -12 0 -16 -8 -19 -6 -20 14 -2 19 1 22 10 15 9 -8 13 -7 13 3 0 17
-26 14 -37 -4 -4 -7 -6 -19 -3 -27 8 -20 -56 -17 -81 5 -20 16 -20 16 -7 -1
14 -17 11 -18 -47 -16 -62 2 -71 10 -49 46 4 6 3 14 -1 17 -7 4 -9 43 -3 65 1
2 9 -3 19 -10 9 -7 14 -9 10 -5 -4 5 0 15 10 23 15 13 15 13 -5 3 -13 -6 -23
-8 -23 -5 0 3 -8 1 -18 -4 -18 -9 -19 -4 -19 78 l1 88 -94 156 c-52 87 -111
180 -132 207 -21 28 -38 53 -38 57 0 5 171 -2 267 -12 18 -2 31 1 28 6 -3 4
-12 6 -19 3 -7 -3 -16 1 -19 8 -3 10 4 13 30 10 23 -3 33 -9 29 -17z m-661
-26 c52 -5 124 -18 160 -27 64 -17 66 -18 125 -97 33 -44 81 -124 108 -177 26
-53 49 -97 52 -97 3 -1 6 8 6 18 0 11 -3 18 -7 15 -9 -5 -19 22 -19 52 0 33
16 22 37 -24 9 -20 19 -41 21 -46 3 -5 0 -6 -6 -2 -6 3 -9 -1 -7 -11 2 -10 4
-26 4 -36 1 -10 6 -15 11 -12 7 4 6 13 -1 27 -9 16 -8 19 3 16 7 -3 14 -10 14
-16 1 -7 3 -14 4 -17 1 -3 4 -9 5 -15 1 -5 4 -12 5 -15 1 -3 4 -14 5 -25 1
-11 4 -22 5 -25 1 -3 4 -9 5 -15 1 -5 4 -11 5 -12 1 -2 3 -21 5 -43 1 -22 0
-34 -2 -27 -3 6 -8 10 -13 7 -4 -3 -11 2 -14 11 -4 10 -2 13 7 8 6 -4 4 2 -6
13 -9 11 -14 23 -10 26 3 4 0 7 -7 7 -7 0 -10 3 -7 7 4 3 0 17 -8 30 -9 13
-13 23 -11 23 3 0 -1 12 -9 27 -8 15 -12 30 -9 35 3 4 0 8 -5 8 -6 0 -11 -16
-11 -36 l0 -37 -37 56 c-40 62 -34 59 -188 83 -122 19 -149 16 -193 -21 -48
-40 -68 -156 -37 -214 17 -34 61 -53 210 -91 l110 -29 -477 0 -477 -1 14 48
c8 26 50 164 92 307 99 332 95 327 267 345 107 11 177 11 281 -1z m-695 -47
l22 -18 -45 -85 c-54 -99 -101 -234 -148 -417 l-34 -133 -387 3 c-212 2 -390
7 -394 11 -8 8 104 232 192 382 69 119 142 187 236 221 42 15 364 51 479 53
41 1 63 -4 79 -17z m-900 -27 c16 -19 25 -4 -212 -326 -130 -177 -196 -260
-215 -267 -30 -12 -692 -64 -705 -56 -5 3 -3 15 3 27 28 54 303 418 343 455
83 77 121 89 436 137 329 50 333 50 350 30z m1674 -327 c3 -29 6 -68 6 -86 l0
-33 -26 20 c-30 24 -54 27 -73 9 -11 -11 -12 -7 -6 22 11 60 27 90 54 105 14
8 29 14 32 15 3 0 9 -24 13 -52z m51 42 c-4 -6 -11 -7 -17 -4 -6 4 -8 3 -5 -2
3 -6 2 -16 -4 -24 -6 -11 -9 -8 -9 13 0 21 5 27 21 27 11 0 17 -5 14 -10z
m446 -7 c13 -16 12 -17 -3 -4 -10 7 -18 15 -18 17 0 8 8 3 21 -13z m-336 -3
c3 -6 -1 -7 -9 -4 -18 7 -21 14 -7 14 6 0 13 -4 16 -10z m81 -20 c15 -12 16
-12 9 -1 -6 10 -4 12 4 7 7 -5 10 -14 7 -22 -7 -17 10 -28 20 -13 5 8 3 9 -6
4 -9 -6 -11 -4 -5 5 6 10 11 9 22 -6 7 -10 11 -24 8 -32 -2 -7 -1 -10 5 -7 5
3 16 -8 25 -25 8 -16 13 -30 10 -30 -4 0 3 -13 14 -29 32 -44 27 -51 -26 -45
-27 4 -54 7 -60 7 -7 0 -13 4 -13 9 0 5 -5 6 -11 3 -5 -4 -20 1 -32 12 -21 18
-21 18 -7 -1 14 -18 14 -19 -10 -6 -14 8 -38 14 -55 15 -78 4 -78 4 -66 18 6
8 8 17 4 21 -9 9 -13 37 -4 32 4 -3 13 5 20 17 11 18 11 20 0 10 -17 -17 -29
-16 -29 2 0 8 5 15 10 15 6 0 10 5 10 11 0 5 -4 8 -9 4 -5 -3 -12 -1 -15 4 -7
11 37 23 57 15 16 -6 17 -20 4 -41 -4 -6 -2 -15 4 -19 7 -4 9 -3 5 4 -3 6 -2
13 4 17 6 4 8 10 5 15 -10 17 15 21 37 6 12 -9 18 -16 12 -16 -5 0 -15 5 -22
10 -6 6 -10 7 -7 4 3 -4 -1 -14 -7 -23 -7 -9 -8 -13 -4 -9 5 4 16 2 24 -5 13
-9 14 -9 8 1 -6 11 5 17 27 13 4 0 7 4 7 10 0 5 5 7 11 3 8 -4 7 0 -1 15 -6
12 -15 19 -21 16 -12 -8 -31 4 -24 16 8 12 39 6 61 -11z m274 -16 c0 -8 -19
-13 -24 -6 -3 5 1 9 9 9 8 0 15 -2 15 -3z m-493 -26 c-3 -8 -6 -5 -6 6 -1 11
2 17 5 13 3 -3 4 -12 1 -19z m523 -172 c0 -3 -4 -8 -10 -11 -5 -3 -10 -1 -10
4 0 6 5 11 10 11 6 0 10 -2 10 -4z m104 -133 c-7 -2 -10 -12 -7 -22 6 -25 -22
-47 -41 -32 -11 9 -20 10 -36 1 -21 -11 -20 -12 -34 34 -7 22 3 26 68 24 34 0
56 -3 50 -5z m30 -5 c-5 -8 -2 -9 12 -3 30 13 68 13 83 1 8 -6 12 -6 9 -1 -15
25 660 -3 1082 -46 175 -17 522 -59 527 -62 1 -2 48 -384 58 -484 l7 -63 -60
0 c-36 0 -62 -5 -64 -11 -3 -9 -51 -9 -188 1 l-185 12 -57 58 c-32 31 -78 68
-103 81 -27 15 -43 29 -40 37 3 7 1 10 -4 7 -6 -3 -9 22 -8 60 l2 66 -95 -6
c-52 -3 -257 -10 -455 -16 -396 -12 -407 -14 -466 -76 -19 -20 -27 -33 -19
-29 8 4 4 -2 -10 -14 -14 -12 -19 -18 -11 -14 9 5 12 3 7 -5 -4 -6 -11 -9 -16
-6 -4 3 -11 -1 -13 -7 -3 -7 -3 2 0 20 5 30 4 32 -26 32 -30 0 -39 9 -24 24 4
4 8 24 9 44 11 187 16 218 33 208 3 -3 7 4 7 15 0 19 -1 20 -14 2 -11 -16 -12
-14 -6 17 3 19 6 47 6 63 -1 15 3 27 7 27 4 0 6 15 5 32 -2 32 2 48 12 48 3 0
2 -5 -2 -12z m-74 -63 c11 -13 14 -13 26 2 12 17 13 17 10 0 -1 -10 -9 -23
-17 -28 -10 -6 -11 -9 -1 -9 8 0 12 -12 10 -34 -1 -19 -6 -32 -10 -30 -4 3 -8
0 -8 -6 0 -6 -5 -8 -11 -5 -6 5 -4 12 8 21 17 13 17 14 0 8 -13 -5 -16 -2 -10
12 4 12 3 15 -5 10 -7 -4 -12 -15 -12 -25 0 -21 23 -44 33 -34 4 3 7 -8 7 -25
0 -18 -5 -32 -11 -32 -5 0 -7 -5 -3 -11 3 -6 0 -15 -7 -20 -8 -5 -9 -9 -3 -9
9 0 13 -79 4 -87 -1 -2 -3 -13 -4 -25 -1 -13 -8 -22 -15 -20 -7 1 -10 -2 -6
-8 3 -6 11 -8 16 -5 15 10 10 -22 -6 -35 -8 -7 -15 -9 -15 -4 0 5 -4 3 -9 -5
-5 -8 -16 -11 -25 -8 -15 6 -17 29 -15 204 1 109 4 202 6 206 3 4 12 2 21 -5
10 -8 13 -8 9 -1 -6 10 4 20 24 22 4 1 12 -6 19 -14z m1973 -70 c143 -22 350
-65 364 -77 7 -6 10 -14 7 -19 -3 -5 -1 -9 4 -9 10 0 60 -127 65 -165 1 -11 5
-24 9 -30 10 -17 39 -155 52 -250 l12 -90 -90 23 c-80 20 -247 45 -453 67
l-63 7 0 51 c0 29 -11 144 -25 257 -14 113 -25 215 -25 228 0 27 9 27 143 7z
m-5573 -73 c0 -4 -6 -14 -12 -21 -7 -8 -8 -11 -2 -8 19 11 9 -44 -11 -59 -10
-8 -13 -14 -6 -14 7 0 10 -4 6 -9 -3 -5 -1 -12 4 -16 6 -3 8 3 6 15 -2 11 0
20 4 20 4 0 9 -27 10 -60 2 -59 -9 -76 -27 -44 -5 9 -15 14 -21 10 -6 -4 -8
-12 -5 -18 5 -7 2 -9 -8 -6 -9 4 -15 0 -15 -8 0 -12 3 -12 22 0 35 23 62 -9
45 -54 -1 -3 -2 -9 -1 -14 1 -5 -5 -3 -15 4 -10 9 -12 16 -5 18 6 2 11 11 10
20 0 11 -2 12 -6 5 -2 -7 -9 -13 -14 -13 -6 0 -7 5 -3 12 4 7 3 8 -5 4 -6 -4
-9 -11 -6 -16 3 -4 -1 -11 -7 -13 -9 -4 -7 -6 3 -6 9 -1 23 -9 31 -18 18 -22
22 -66 5 -60 -7 3 -11 10 -9 17 3 11 0 11 -12 1 -26 -22 -49 -5 -42 29 4 20 1
30 -7 30 -8 0 -7 4 3 10 11 7 11 10 2 10 -8 0 -10 5 -6 12 4 6 9 34 10 62 4
69 9 89 23 94 9 3 9 7 0 18 -9 11 -9 14 0 14 7 0 10 4 7 8 -3 5 4 19 15 30 20
22 39 29 39 14z m1358 -9 c3 -10 -29 -13 -137 -13 -129 0 -153 4 -134 24 13
13 266 2 271 -11z m1005 -8 c1 -6 -50 -11 -135 -11 -128 -2 -149 2 -131 20 11
11 263 2 266 -9z m-1704 -112 c-1 -10 -1 -37 0 -60 l1 -43 66 0 c38 0 63 -4
59 -9 -3 -5 -1 -12 4 -15 5 -4 13 -1 17 5 5 8 3 9 -6 4 -8 -5 -11 -4 -7 2 3 5
27 11 52 11 35 2 44 -1 39 -10 -6 -10 -4 -10 7 -2 8 6 56 12 108 13 87 2 93 1
87 -16 -6 -14 -5 -15 5 -6 14 14 53 -4 106 -51 30 -26 48 -66 23 -51 -5 3 -10
1 -10 -5 0 -6 -4 -8 -10 -5 -5 3 -10 2 -10 -4 0 -17 -63 -31 -124 -28 -46 3
-63 8 -76 25 -10 11 -20 18 -24 15 -3 -4 -6 -1 -6 6 0 7 -4 10 -9 7 -5 -3 -14
1 -21 9 -7 8 -19 15 -26 15 -8 0 -14 4 -14 9 0 5 -6 8 -12 8 -25 -2 -88 15
-88 24 0 5 -7 6 -16 2 -9 -3 -20 0 -25 8 -5 9 -9 9 -9 2 0 -6 -8 -10 -17 -8
-10 1 -17 10 -17 19 2 18 -5 20 -26 6 -12 -8 -12 -10 -1 -10 8 0 11 -3 8 -6
-4 -4 -14 -1 -24 7 -11 9 -14 10 -9 2 4 -7 3 -13 -2 -13 -16 0 -22 13 -12 25
7 8 5 12 -5 12 -8 0 -13 -3 -10 -5 3 -3 -3 -11 -13 -19 -16 -12 -16 -13 2 -6
12 4 17 3 13 -4 -8 -13 -57 -14 -57 -1 0 5 5 6 12 2 7 -4 8 -3 4 5 -6 8 -15 5
-31 -14 -21 -22 -35 -28 -62 -24 -5 1 -7 5 -5 11 1 5 -2 7 -7 3 -6 -3 -8 -12
-5 -19 3 -7 -2 -16 -11 -20 -11 -4 -14 -2 -10 7 4 6 -1 3 -9 -7 -9 -11 -16
-16 -16 -11 0 5 -7 0 -15 -12 -9 -12 -22 -20 -29 -17 -8 3 -17 0 -22 -7 -5 -8
-3 -10 7 -4 12 8 12 6 0 -8 -7 -9 -18 -14 -24 -10 -5 3 -7 1 -4 -4 4 -6 -3
-19 -15 -29 -21 -19 -21 -19 -8 5 6 13 7 21 2 17 -6 -3 -13 -2 -17 4 -8 13
-25 13 -25 -1 0 -5 4 -8 9 -4 13 7 22 -10 16 -27 -4 -11 -45 -14 -196 -16
-152 -2 -189 0 -183 10 6 10 4 10 -9 0 -14 -12 -16 -11 -14 7 0 11 5 17 9 15
5 -3 6 7 4 21 -5 27 -5 27 42 21 26 -4 64 -8 84 -8 21 -1 35 -5 32 -9 -2 -4 5
-16 16 -27 16 -15 34 -19 88 -18 l67 2 3 37 c2 20 8 37 13 37 6 0 8 3 5 8 -8
14 22 70 44 82 18 10 21 10 14 -2 -6 -10 -5 -11 7 -1 8 7 30 15 48 18 27 5 34
2 38 -15 5 -20 18 -26 27 -12 2 4 19 9 36 10 17 1 29 -2 26 -7 -7 -11 20 -8
31 4 4 4 3 5 -4 1 -6 -3 -15 -1 -20 6 -10 16 -43 20 -43 5 0 -6 -3 -7 -7 -4
-3 4 -13 1 -21 -6 -13 -10 -15 -9 -9 6 5 12 3 16 -5 11 -6 -4 -8 -3 -5 3 9 15
117 13 117 -1 0 -6 4 -5 9 3 5 8 18 12 30 8 12 -3 21 -1 21 4 0 5 -1 9 -2 10
-2 0 -56 4 -120 9 -152 11 -166 18 -103 56 65 37 125 53 213 53 64 1 73 -1 71
-16z m-444 -23 c4 -6 10 -8 15 -5 5 3 8 -18 7 -47 -2 -36 -7 -52 -16 -50 -7 1
-10 -2 -6 -8 3 -6 10 -8 15 -5 9 6 7 -32 -5 -90 -3 -16 -6 -35 -7 -40 -2 -15
-70 -16 -87 -1 -12 8 -13 8 -7 -1 4 -7 2 -13 -4 -13 -18 0 -23 29 -9 47 10 12
10 15 2 9 -7 -4 -13 -2 -13 3 0 6 6 11 13 11 8 0 8 3 2 8 -16 11 -18 65 -2 56
9 -6 9 -5 0 8 -7 8 -10 17 -7 20 3 3 7 28 9 54 2 27 4 50 4 52 3 7 91 0 96 -8z
m6519 -56 c3 -8 2 -12 -4 -9 -6 3 -10 10 -10 16 0 14 7 11 14 -7z m-3565 -54
c23 0 24 -1 6 -13 -10 -8 -15 -18 -12 -24 4 -6 -9 -10 -31 -11 -27 -1 -33 1
-22 8 11 7 8 10 -15 10 -23 0 -27 -3 -15 -10 8 -5 11 -10 5 -10 -18 0 -32 14
-40 39 -7 24 -7 24 46 18 30 -4 65 -7 78 -7z m3126 -4 c21 5 24 3 20 -15 -2
-12 1 -21 6 -21 5 0 9 6 8 13 -4 32 1 41 14 24 6 -9 26 -18 42 -21 17 -2 30
-5 30 -7 0 -1 16 -3 35 -4 75 -6 90 -10 95 -23 4 -10 0 -12 -10 -8 -10 4 -14
2 -9 -5 4 -7 -1 -9 -12 -7 -11 2 -18 10 -16 17 1 7 -2 10 -8 6 -6 -3 -8 -10
-5 -15 3 -4 -4 -6 -15 -3 -11 3 -17 10 -13 17 4 6 -1 5 -10 -3 -12 -9 -17 -10
-17 -2 0 7 -4 9 -10 6 -5 -3 -10 0 -11 7 0 11 -2 11 -6 0 -4 -10 -9 -9 -19 5
-13 17 -14 17 -8 -2 5 -17 2 -16 -16 5 l-23 25 7 -25 c4 -14 4 -20 -1 -15 -4
6 -14 10 -20 11 -30 2 -34 5 -28 15 4 6 -3 5 -15 -3 -17 -10 -24 -10 -27 -1
-2 7 -11 9 -19 6 -18 -7 -64 5 -64 17 0 9 21 7 51 -5 9 -3 22 1 30 11 8 10 15
12 17 5 2 -6 14 -8 27 -5z m464 -36 c0 -9 -4 -8 -9 5 -5 11 -9 27 -9 35 0 9 4
8 9 -5 5 -11 9 -27 9 -35z m-3516 18 c8 -27 6 -29 -20 -22 -14 4 -19 11 -16
25 7 26 29 24 36 -3z m39 -3 c-2 -14 -8 -25 -12 -25 -4 0 -10 11 -12 25 -4 19
-1 25 12 25 13 0 16 -6 12 -25z m68 6 c0 -11 5 -23 11 -27 8 -5 10 1 7 21 -5
26 -4 27 24 21 17 -3 42 -6 57 -6 18 0 22 -3 12 -9 -11 -7 -11 -9 0 -14 10 -4
8 -6 -4 -6 -10 -1 -15 -5 -12 -11 3 -5 1 -10 -4 -10 -6 0 -11 10 -12 23 l0 22
-10 -24 c-8 -20 -14 -22 -42 -17 -17 4 -40 8 -50 9 -10 1 -15 7 -12 15 3 7 5
18 5 23 0 5 7 9 15 9 8 0 15 -9 15 -19z m3337 -62 c10 -1 25 -1 35 0 9 1 20
-4 24 -10 5 -9 10 -7 15 7 6 15 8 15 8 3 1 -9 -6 -22 -14 -29 -18 -15 -49 -5
-39 12 5 8 0 7 -11 -2 -11 -9 -16 -10 -11 -2 4 7 2 12 -7 12 -10 0 -14 -7 -11
-22 5 -23 4 -23 -5 -2 -7 16 -17 21 -40 19 -18 -1 -28 2 -25 7 4 5 15 8 25 5
15 -4 19 0 20 21 0 26 1 26 9 5 5 -13 17 -24 27 -24z m108 14 c2 -10 4 -19 5
-20 2 -2 3 -6 5 -10 1 -5 7 -21 13 -36 15 -36 15 -47 0 -47 -7 0 -5 -5 4 -12
21 -17 33 -105 17 -125 -10 -11 -10 -14 2 -11 9 2 15 -8 17 -30 3 -29 1 -32
-20 -28 -13 3 -26 5 -30 5 -7 1 -5 17 7 44 4 9 2 23 -3 30 -16 18 -12 59 4 46
8 -7 15 -6 20 3 4 7 4 10 -1 6 -4 -4 -14 -1 -21 7 -17 17 -18 29 -1 19 9 -6 9
-4 -1 8 -7 9 -13 31 -12 49 1 44 -4 77 -13 85 -4 4 -7 16 -7 27 0 24 10 17 15
-10z m-5372 10 c-7 -2 -19 -2 -25 0 -7 3 -2 5 12 5 14 0 19 -2 13 -5z m3109
-8 c37 -7 93 -24 125 -37 75 -31 175 -97 169 -113 -2 -7 4 -19 15 -28 10 -9
19 -13 19 -7 0 5 -8 14 -17 19 -10 6 -13 11 -7 11 21 0 45 -26 38 -43 -3 -9
-11 -14 -17 -10 -6 4 -7 1 -2 -7 6 -10 11 -10 20 3 17 24 27 21 21 -5 -3 -13
-3 -17 0 -10 3 6 11 12 16 12 6 0 8 -3 5 -6 -3 -4 5 -15 18 -26 16 -12 22 -25
18 -36 -3 -9 -3 -14 2 -10 13 12 35 -12 28 -29 -4 -11 -2 -14 5 -9 8 5 10 1 5
-10 -6 -17 -7 -17 -17 1 -20 34 -78 95 -86 90 -4 -3 -23 12 -42 33 -35 37 -44
44 -110 84 -20 13 -39 30 -41 39 -9 32 -240 97 -255 72 -4 -6 -49 -16 -99 -22
-51 -6 -105 -16 -120 -22 -22 -8 -30 -7 -39 5 -9 13 -22 9 -90 -33 -94 -58
-164 -117 -164 -137 0 -8 -20 -39 -45 -70 -25 -30 -61 -86 -80 -125 -19 -38
-41 -68 -47 -66 -23 4 -50 -103 -56 -215 -3 -69 -1 -108 5 -108 6 0 16 -34 22
-76 6 -42 22 -108 35 -146 14 -39 22 -76 19 -84 -12 -32 162 -254 187 -239 10
6 59 -24 60 -37 0 -4 -14 -2 -31 4 -23 8 -27 13 -17 19 9 6 9 9 1 9 -20 0 -23
-16 -5 -31 9 -8 30 -14 45 -14 16 1 31 -3 34 -9 4 -5 0 -6 -8 -1 -12 7 -12 6
-1 -7 20 -25 -4 -32 -27 -9 -11 11 -22 17 -25 14 -3 -3 -50 39 -104 93 -86 86
-105 112 -145 194 -68 142 -81 200 -82 365 0 116 4 153 23 219 112 390 478
629 844 551z m2083 5 c16 0 15 -3 -9 -15 -37 -20 -73 -21 -57 -2 6 8 7 17 3
22 -4 4 4 5 18 2 14 -4 34 -7 45 -7z m-5989 -11 c-74 -10 -181 -52 -172 -68 4
-5 1 -13 -5 -17 -8 -4 -9 -3 -5 4 4 7 2 12 -4 12 -6 0 -39 -29 -74 -64 -94
-96 -162 -236 -191 -399 -9 -51 -13 -62 -14 -36 -3 100 79 308 159 403 93 112
211 174 330 174 36 0 31 -2 -24 -9z m951 5 c-3 -3 -12 -4 -19 -1 -8 3 -5 6 6
6 11 1 17 -2 13 -5z m46 -1 c-7 -2 -19 -2 -25 0 -7 3 -2 5 12 5 14 0 19 -2 13
-5z m96 -9 c10 -9 -55 -3 -69 6 -10 6 -2 7 25 3 22 -3 42 -7 44 -9z m-982 0
c-3 -3 -12 -4 -19 -1 -8 3 -5 6 6 6 11 1 17 -2 13 -5z m1036 -1 c-7 -2 -21 -2
-30 0 -10 3 -4 5 12 5 17 0 24 -2 18 -5z m112 -3 c25 -11 -1 -11 -35 0 -20 6
-21 8 -5 8 11 0 29 -3 40 -8z m4472 -22 c-3 -7 -5 -2 -5 12 0 14 2 19 5 13 2
-7 2 -19 0 -25z m-5697 14 c0 -4 -15 -8 -32 -9 -27 -2 -29 0 -13 7 26 11 45
12 45 2z m1383 1 c-7 -2 -21 -2 -30 0 -10 3 -4 5 12 5 17 0 24 -2 18 -5z
m-1458 -13 c-3 -5 -10 -10 -16 -10 -5 0 -9 5 -9 10 0 6 7 10 16 10 8 0 12 -4
9 -10z m231 -6 c18 -14 18 -14 -6 -3 -31 14 -36 19 -24 19 6 0 19 -7 30 -16z
m1327 9 c-7 -2 -19 -2 -25 0 -7 3 -2 5 12 5 14 0 19 -2 13 -5z m70 0 c-7 -2
-19 -2 -25 0 -7 3 -2 5 12 5 14 0 19 -2 13 -5z m-1668 -13 c-3 -5 -14 -10 -23
-10 -15 0 -15 2 -2 10 20 13 33 13 25 0z m238 -23 c26 -10 47 -24 47 -30 0 -5
-12 -42 -26 -81 -14 -39 -40 -127 -58 -196 -31 -121 -32 -125 -54 -115 -22 10
-22 13 -22 210 0 110 3 210 6 222 7 26 26 24 107 -10z m514 18 c5 -4 3 -5 -4
-1 -6 3 -14 2 -17 -3 -7 -10 13 -9 30 1 6 4 42 6 80 3 38 -2 148 -6 244 -10
96 -3 189 -8 205 -11 17 -3 47 -6 68 -6 20 0 37 -4 37 -9 0 -5 -5 -9 -10 -9
-18 0 -70 -43 -70 -57 0 -18 -9 -16 -34 5 -20 16 -20 16 -7 0 12 -16 11 -18
-8 -18 -15 0 -20 4 -15 13 5 7 1 7 -10 -2 -14 -12 -21 -13 -38 -2 -16 10 -19
10 -13 -1 6 -10 5 -10 -5 -1 -11 10 -17 10 -28 0 -12 -9 -16 -9 -19 1 -3 6 -9
12 -14 12 -6 0 -7 -5 -3 -12 5 -7 3 -8 -6 -3 -7 4 -101 10 -209 12 -175 4
-271 8 -279 12 -1 0 2 11 9 22 8 15 8 19 0 15 -6 -4 -11 -2 -11 3 0 6 7 11 15
11 8 0 15 3 15 8 0 25 79 47 97 27z m1110 9 c-3 -3 -12 -4 -19 -1 -8 3 -5 6 6
6 11 1 17 -2 13 -5z m131 -1 c-10 -2 -26 -2 -35 0 -10 3 -2 5 17 5 19 0 27 -2
18 -5z m140 0 c-10 -2 -28 -2 -40 0 -13 2 -5 4 17 4 22 1 32 -1 23 -4z m1917
-17 c28 -9 59 -22 69 -29 19 -14 19 -16 -7 -71 -35 -74 -90 -232 -113 -328
-11 -43 -22 -78 -25 -78 -4 0 -12 7 -19 15 -7 8 -20 15 -29 15 -14 0 -14 -2
-1 -10 14 -9 7 -14 -13 -11 -5 1 -6 -3 -3 -8 3 -5 -1 -12 -10 -15 -8 -3 -12
-11 -8 -17 4 -7 15 -1 30 17 13 16 24 27 24 24 8 -36 7 -41 -7 -36 -13 5 -14
4 -3 -9 10 -12 10 -15 -4 -16 -9 -1 -23 -2 -31 -3 -17 -1 -78 85 -67 95 19 19
46 13 52 -11 4 -14 7 49 6 140 -1 91 3 209 8 264 l8 99 47 -6 c25 -3 69 -13
96 -21z m-1822 7 c-7 -2 -21 -2 -30 0 -10 3 -4 5 12 5 17 0 24 -2 18 -5z m134
0 c-20 -2 -52 -2 -70 0 -17 2 0 4 38 4 39 0 53 -2 32 -4z m180 0 c-20 -2 -52
-2 -70 0 -17 2 0 4 38 4 39 0 53 -2 32 -4z m70 1 c-3 -3 -12 -4 -19 -1 -8 3
-5 6 6 6 11 1 17 -2 13 -5z m70 0 c-3 -3 -12 -4 -19 -1 -8 3 -5 6 6 6 11 1 17
-2 13 -5z m46 -1 c-7 -2 -19 -2 -25 0 -7 3 -2 5 12 5 14 0 19 -2 13 -5z m74 1
c-3 -3 -12 -4 -19 -1 -8 3 -5 6 6 6 11 1 17 -2 13 -5z m176 -1 c-7 -2 -19 -2
-25 0 -7 3 -2 5 12 5 14 0 19 -2 13 -5z m667 -97 c38 -145 109 -300 199 -436
23 -34 41 -63 41 -66 0 -15 -57 1 -97 28 -53 35 -266 240 -346 332 l-51 59 43
39 c40 35 182 128 189 123 1 -1 11 -36 22 -79z m2020 33 c0 -8 95 -49 127 -55
12 -2 23 0 23 6 0 5 5 10 10 10 6 0 10 -5 10 -11 0 -11 25 -39 35 -39 3 0 3 5
-1 11 -4 7 3 6 17 -2 13 -7 31 -14 39 -15 40 -7 66 -12 80 -15 11 -3 14 3 13
21 l-2 25 11 -22 c6 -13 16 -23 22 -24 6 0 21 -2 34 -3 12 -2 33 3 45 9 24 12
51 9 42 -5 -3 -5 -1 -11 4 -14 5 -4 13 -1 17 5 5 8 3 9 -6 4 -9 -5 -11 -4 -6
3 6 10 17 10 55 3 2 -1 -2 -7 -8 -14 -14 -18 -85 -21 -75 -4 5 9 4 9 -7 0 -16
-16 -33 -17 -23 -2 3 6 -6 3 -21 -7 -23 -15 -28 -15 -36 -3 -6 10 -9 11 -9 1
0 -9 -5 -10 -19 -3 -10 6 -21 7 -25 4 -3 -3 -6 -1 -6 6 0 8 -6 11 -16 7 -9 -3
-21 -3 -27 1 -7 4 -20 8 -29 9 -10 1 -19 2 -20 4 -2 1 -16 4 -33 6 -16 3 -32
8 -35 12 -3 4 -16 8 -30 10 -47 5 -50 5 -50 13 0 5 -6 6 -14 3 -8 -3 -25 0
-38 7 -13 7 -26 12 -30 11 -4 -1 -16 12 -28 28 -12 17 -19 30 -15 30 3 0 1 10
-5 23 -10 20 -9 20 9 -3 11 -14 21 -28 21 -31z m-5295 1 c21 -22 37 -40 34
-40 -3 0 -23 18 -44 40 -21 22 -37 40 -34 40 3 0 23 -18 44 -40z m1193 28 c13
-11 14 -11 8 0 -6 10 6 13 58 11 36 -1 66 -5 66 -8 0 -3 70 -5 155 -4 89 1
155 -3 155 -8 0 -5 -5 -8 -11 -7 -6 2 -14 -4 -16 -12 -4 -13 -3 -13 6 0 10 14
16 7 12 -14 -1 -5 5 -3 14 4 9 7 14 19 11 26 -5 13 2 13 317 5 34 -1 46 -4 41
-13 -5 -7 -3 -8 7 -2 8 5 55 10 106 11 84 2 92 1 87 -15 -5 -16 -5 -16 5 0 9
14 32 16 146 17 104 0 134 -3 128 -12 -5 -9 -3 -9 8 -1 16 13 172 7 164 -7 -3
-4 -1 -10 5 -14 6 -4 7 -11 4 -17 -4 -7 -2 -8 5 -4 9 6 9 11 0 22 -9 11 -8 15
5 20 23 9 47 -3 53 -26 3 -11 9 -17 14 -14 5 3 9 0 9 -5 0 -14 -17 -14 -25 -1
-10 16 -25 12 -19 -5 3 -8 11 -13 17 -12 7 1 11 -5 9 -13 -3 -11 2 -10 17 4
14 13 21 15 21 6 0 -7 7 -18 15 -24 12 -9 -14 -12 -110 -13 -104 -2 -125 0
-123 11 2 8 -1 15 -7 15 -5 0 -9 -6 -7 -13 1 -9 -14 -12 -52 -12 -50 0 -53 2
-46 21 5 14 16 20 38 19 20 0 29 3 24 10 -4 6 -7 14 -7 18 0 3 -4 10 -8 15 -5
4 -7 1 -5 -7 2 -10 -4 -15 -19 -14 -13 1 -20 -2 -17 -7 2 -4 -4 -13 -15 -19
-12 -6 -18 -16 -15 -25 5 -12 -4 -15 -44 -15 -28 0 -54 5 -57 10 -4 6 -10 8
-14 6 -4 -3 -13 0 -21 6 -12 8 -12 9 2 4 10 -3 19 -2 22 2 3 4 -4 9 -15 9 -11
1 -23 -5 -26 -13 -6 -15 -43 -20 -43 -5 0 5 -9 13 -20 16 -12 4 -17 11 -14 18
5 8 2 8 -7 0 -16 -16 -30 -17 -26 -2 1 6 -6 13 -15 14 -11 2 -15 -2 -11 -11 3
-8 10 -14 15 -14 7 0 6 -5 -1 -14 -9 -10 -35 -12 -109 -10 -53 3 -122 5 -152
5 -30 0 -61 5 -69 12 -12 10 -13 9 -7 -1 6 -10 0 -13 -25 -10 -22 2 -33 8 -31
16 1 8 -2 11 -8 7 -6 -3 -8 -11 -4 -16 3 -6 -20 -8 -61 -5 -49 3 -70 9 -81 23
-10 13 -13 14 -9 2 4 -10 0 -16 -10 -16 -8 0 -15 6 -15 14 0 16 -16 17 -26 1
-4 -7 -3 -8 4 -4 7 4 12 3 12 -2 0 -15 -112 -11 -140 6 -22 12 -23 12 -7 -1
16 -13 13 -14 -33 -16 -46 -1 -54 4 -52 29 0 3 -8 6 -18 6 -10 0 -16 -5 -13
-11 5 -15 -28 -16 -46 -1 -10 7 -13 7 -8 0 4 -7 -19 -10 -69 -10 -41 1 -74 4
-74 9 0 4 -4 5 -10 2 -6 -3 -7 1 -4 9 3 9 10 14 14 11 5 -3 12 -1 15 5 4 6 1
9 -5 8 -7 -2 -14 5 -15 15 -2 9 2 17 8 17 8 0 8 3 -1 9 -8 5 5 8 34 9 26 1 54
-3 62 -10z m-1598 -65 c20 -105 68 -261 104 -335 30 -60 32 -67 15 -71 -27 -7
-177 176 -247 303 l-31 55 23 26 c25 28 104 89 116 89 4 0 13 -30 20 -67z
m370 42 c20 -24 6 -28 -15 -5 -10 11 -13 20 -8 20 6 0 16 -7 23 -15z m287 -15
c-1 -23 -17 -27 -17 -5 0 8 -4 15 -10 15 -5 0 -6 -8 -3 -17 5 -13 2 -15 -11
-10 -10 4 -23 7 -29 7 -7 1 4 9 23 19 39 21 49 19 47 -9z m5469 7 c3 -3 17 -2
30 3 17 7 24 6 25 -3 0 -6 2 -27 4 -46 2 -22 0 -29 -6 -20 -5 8 -9 22 -9 31 0
9 -5 20 -12 24 -6 4 -8 3 -4 -4 5 -9 -13 -10 -34 -2 -3 1 -14 1 -26 1 -12 -1
-21 4 -21 12 0 14 40 17 53 4z m98 -19 c-7 -11 13 -10 35 1 13 7 17 5 18 -10
1 -11 -2 -17 -7 -14 -5 3 -24 6 -43 7 -20 1 -34 6 -34 14 0 7 8 12 18 11 10
-1 15 -5 13 -9z m-5764 -82 c0 -6 -9 0 -20 12 -11 12 -20 25 -20 31 0 5 -7 11
-15 15 -8 3 -15 11 -15 18 1 14 70 -61 70 -76z m1007 35 c0 -11 -5 -17 -9 -14
-5 2 -6 -8 -2 -24 4 -15 4 -25 0 -21 -4 3 -8 10 -9 15 0 4 -11 16 -24 26 -32
26 -29 37 11 37 28 0 34 -4 33 -19z m1130 -19 c-34 -4 -48 5 -27 18 8 5 22 4
34 -3 20 -11 20 -12 -7 -15z m2425 18 c20 0 39 -3 42 -9 3 -5 22 -7 42 -4 29
4 35 2 28 -9 -6 -10 -5 -11 8 -1 8 7 18 10 22 6 3 -4 28 -8 54 -10 68 -5 72
-6 72 -13 0 -3 15 -5 33 -4 17 2 43 -4 56 -13 13 -8 20 -10 17 -4 -4 6 0 11 9
11 9 0 14 -4 11 -8 -2 -4 3 -8 12 -8 35 -1 94 -15 129 -29 41 -17 67 -20 58
-5 -3 6 0 10 7 10 31 0 257 -54 253 -61 -3 -4 30 -16 73 -27 152 -41 155 -42
61 -37 -47 3 -128 16 -180 30 -52 14 -211 43 -354 64 -143 21 -279 42 -302 45
-72 11 -94 15 -208 30 -115 16 -173 24 -215 32 -14 2 -50 6 -80 10 -112 12
-59 16 125 10 105 -4 207 -6 227 -6z m-5197 -30 c-3 -5 -11 -10 -16 -10 -6 0
-7 5 -4 10 3 6 11 10 16 10 6 0 7 -4 4 -10z m-15 -24 c0 -2 -7 -7 -16 -10 -8
-3 -12 -2 -9 4 6 10 25 14 25 6z m681 -62 c44 -78 46 -100 12 -117 -15 -8 -70
-45 -121 -81 -75 -54 -95 -65 -110 -57 -23 12 -42 -4 -42 -35 0 -32 -17 -39
-22 -9 -4 18 9 47 49 107 90 134 182 249 197 245 5 -2 22 -25 37 -53z m-731
-21 c-12 -21 -24 -45 -25 -55 -2 -10 -9 -26 -15 -35 -10 -16 -11 -16 -5 2 4
11 8 27 10 36 6 31 49 112 53 101 2 -7 -6 -29 -18 -49z m4659 12 c33 -38 81
-125 81 -147 0 -7 -33 -30 -73 -50 -39 -21 -119 -66 -177 -101 l-104 -64 -18
23 c-10 12 -28 24 -40 26 -19 3 -15 10 36 73 77 93 246 275 256 275 4 0 22
-16 39 -35z m88 -59 c-3 -8 0 -17 8 -19 13 -5 52 -99 58 -138 2 -10 6 -22 10
-25 18 -18 4 -23 -23 -9 -17 9 -28 20 -25 25 3 5 2 18 -4 27 -5 10 -10 32 -12
48 -2 17 -11 44 -21 62 -16 30 -15 43 5 43 5 0 7 -6 4 -14z m1843 -16 c0 -5
10 -20 22 -32 l21 -21 -34 7 c-19 4 -68 11 -109 17 -41 5 -84 11 -95 13 -11 3
-27 6 -35 7 -16 3 106 14 183 17 26 1 47 -2 47 -8z m-5796 -74 c4 -21 9 -42
12 -47 3 -5 0 -9 -5 -9 -6 0 -11 6 -11 13 -1 6 -3 30 -6 52 -4 22 -4 38 -1 35
3 -3 8 -22 11 -44z m-414 -18 l-1 -43 -15 28 c-16 29 -13 57 6 57 5 0 10 -19
10 -42z m-237 -63 c144 -73 177 -94 177 -111 0 -20 -8 -21 -178 -33 -99 -7
-189 -15 -202 -18 -23 -6 -23 -6 -17 68 8 88 27 191 36 187 3 -2 86 -44 184
-93z m335 50 c-14 -31 -18 -28 -11 7 3 15 9 25 14 23 4 -3 3 -17 -3 -30z
m5759 -20 c220 -25 253 -31 253 -44 -1 -29 -18 -30 -130 -11 -86 15 -424 60
-447 60 -2 0 -3 6 -3 14 0 17 9 17 327 -19z m-5817 -12 c0 -7 -4 -13 -9 -13
-5 0 -11 6 -14 13 -3 8 1 14 9 14 8 0 14 -6 14 -14z m3271 -52 c297 -101 298
-101 324 -127 13 -13 29 -24 35 -24 5 0 10 -11 10 -23 l0 -24 -207 -7 c-115
-3 -255 -9 -312 -13 l-104 -6 5 84 c4 68 33 209 43 209 1 0 94 -31 206 -69z
m-2881 30 c0 -11 3 -26 6 -35 3 -9 2 -16 -4 -16 -5 0 -12 16 -14 35 -2 19 0
35 4 35 4 0 8 -9 8 -19z m3514 4 c17 -13 16 -16 -20 -62 -56 -71 -57 -72 -50
-34 20 109 32 125 70 96z m-4016 -33 c2 -7 -5 -12 -15 -11 -12 0 -14 2 -4 6
11 5 11 7 0 15 -12 8 -12 9 0 6 8 -3 17 -10 19 -16z m6395 4 c24 -18 21 -36
-5 -36 -43 0 -68 12 -68 31 0 23 45 26 73 5z m-6323 -78 c0 -57 -14 -83 -31
-57 -12 20 -11 96 2 121 17 31 29 5 29 -64z m54 44 c12 -42 -3 -106 -25 -110
-14 -3 -16 4 -12 42 3 24 1 59 -5 76 -11 29 -10 31 10 28 15 -2 25 -13 32 -36z
m4397 6 c6 -11 9 -29 6 -39 -3 -10 -1 -22 4 -25 5 -3 9 -10 9 -15 0 -6 -4 -8
-8 -5 -5 3 -9 -1 -9 -9 0 -8 4 -12 9 -9 13 8 9 -20 -4 -35 -10 -11 -10 -12 -1
-7 10 5 12 -8 8 -56 -3 -35 -6 -75 -7 -89 -1 -22 -28 -39 -28 -17 0 4 3 8 8 8
4 0 6 27 6 60 -1 33 2 60 7 60 5 0 9 5 9 11 0 5 -4 8 -8 5 -4 -2 -9 5 -9 16
-1 12 -6 24 -10 27 -8 5 -10 26 -3 34 8 10 6 36 -3 34 -6 -1 -12 8 -13 21 -1
12 -2 23 -4 25 -1 1 -3 9 -5 18 -4 23 32 12 46 -13z m-4327 10 c-3 -4 -9 -8
-15 -8 -5 0 -9 4 -9 8 0 5 7 9 15 9 8 0 12 -4 9 -9z m44 -34 c-3 -2 -20 -6
-39 -9 -29 -5 -30 -4 -11 4 12 6 25 18 29 27 5 15 7 15 15 -1 6 -9 8 -18 6
-21z m-218 16 c0 -5 -2 -10 -4 -10 -3 0 -8 5 -11 10 -3 6 -1 10 4 10 6 0 11
-4 11 -10z m507 -27 c-3 -10 -5 -4 -5 12 0 17 2 24 5 18 2 -7 2 -21 0 -30z
m-17 11 c0 -8 -4 -12 -10 -9 -5 3 -10 10 -10 16 0 5 5 9 10 9 6 0 10 -7 10
-16z m3203 9 c4 -3 2 -12 -4 -20 -9 -10 -8 -13 2 -13 9 -1 7 -4 -4 -11 -26
-15 -42 2 -28 30 12 22 23 26 34 14z m210 -34 c-7 -7 -19 -8 -30 -4 -16 7 -15
9 7 15 30 8 38 4 23 -11z m-3469 5 c45 -7 46 -8 46 -42 0 -40 -20 -162 -26
-162 -4 0 -187 93 -300 153 -19 9 -34 21 -34 26 0 20 224 37 314 25z m3302 -8
c18 -14 18 -15 2 -21 -10 -4 -18 -11 -18 -17 0 -5 5 -6 12 -2 7 4 8 3 4 -4
-11 -18 -30 -14 -45 9 -11 19 -11 21 2 16 11 -4 15 -1 12 14 -5 23 4 24 31 5z
m285 -7 c14 -28 -6 -51 -39 -43 -24 7 -29 33 -10 52 18 18 36 15 49 -9z
m-3407 -39 c6 -19 5 -21 -3 -10 -9 13 -11 13 -11 -1 0 -9 7 -20 16 -23 8 -3
13 -10 9 -16 -3 -5 -1 -18 5 -29 7 -14 7 -22 -2 -27 -7 -5 -8 -3 -3 6 6 9 4
11 -5 5 -10 -6 -12 -4 -6 11 6 15 5 16 -5 7 -16 -16 6 -44 27 -36 8 3 15 0 15
-6 3 -20 5 -26 22 -57 9 -17 13 -35 9 -38 -3 -4 2 -4 12 0 13 5 17 4 13 -3 -4
-6 0 -16 8 -23 8 -7 15 -9 15 -4 0 5 4 4 8 -2 16 -23 112 -54 173 -56 35 -1
68 -4 74 -7 5 -3 26 -5 45 -6 19 0 41 -4 49 -9 11 -7 12 -6 6 5 -8 12 -6 12 8
0 11 -9 17 -10 17 -2 0 6 9 11 20 11 11 0 20 -3 20 -7 0 -5 37 -8 82 -8 162
-1 239 -7 254 -22 8 -8 14 -10 14 -3 0 7 25 10 74 8 51 -2 73 -7 72 -15 -3
-17 -16 -29 -16 -14 0 7 -5 9 -12 5 -8 -5 -6 -11 6 -20 9 -6 18 -21 19 -33 1
-12 5 -21 10 -21 5 0 7 7 3 15 -3 8 0 15 7 15 8 0 9 2 1 8 -6 4 -10 15 -8 25
3 22 14 36 14 18 0 -7 5 -9 13 -4 6 4 31 9 55 10 32 2 41 -1 36 -10 -5 -8 -2
-7 9 2 16 13 22 8 17 -14 -1 -5 4 -4 11 3 16 15 33 16 23 0 -5 -7 -3 -8 7 -2
24 14 51 16 43 2 -6 -10 -5 -10 7 -1 8 7 33 11 55 9 21 -2 52 -4 67 -5 19 -1
26 -5 21 -13 -5 -7 -3 -8 7 -2 21 13 89 15 89 3 0 -5 -5 -7 -10 -4 -6 4 -10 3
-9 -2 4 -20 -3 -22 -25 -8 -16 11 -26 13 -31 5 -3 -6 -3 -10 2 -9 19 3 33 -2
33 -11 0 -6 -11 -8 -25 -6 -14 3 -25 3 -25 1 0 -11 34 -35 48 -34 14 0 13 2
-3 9 -11 5 -14 9 -7 9 23 2 27 4 40 23 7 10 18 15 24 12 7 -4 8 -2 4 4 -10 16
26 15 43 0 8 -7 11 -8 8 -2 -7 12 42 12 62 -1 10 -5 12 -4 7 3 -10 16 16 15
33 -1 10 -8 12 -8 7 0 -5 8 1 10 21 5 16 -4 47 -7 70 -6 29 1 40 -3 36 -10 -4
-6 1 -5 10 2 9 8 25 11 38 7 12 -4 67 -9 123 -10 123 -4 128 -5 143 -30 12
-19 13 -19 10 4 -2 21 4 25 53 35 71 16 109 36 150 82 l33 38 -7 -50 c-11 -69
-37 -125 -75 -157 -28 -23 -41 -27 -97 -27 -36 0 -63 3 -61 8 3 4 -74 8 -171
10 -122 1 -180 6 -190 15 -13 9 -14 9 -8 0 9 -17 -6 -17 -23 -1 -11 11 -12 10
-6 -2 5 -9 -1 -7 -15 5 -13 11 -20 14 -16 8 9 -17 -6 -17 -23 -1 -8 7 -11 8
-8 2 4 -7 -20 -10 -74 -10 -75 0 -79 1 -73 20 3 12 11 26 17 31 7 7 8 4 3 -10
-6 -15 -4 -17 5 -8 6 6 8 16 5 22 -8 12 -37 15 -34 4 1 -5 -1 -18 -6 -31 -6
-17 -14 -22 -37 -20 -16 1 -29 6 -29 11 0 5 -6 5 -12 -1 -16 -12 -108 -12
-108 0 0 5 -4 6 -10 3 -6 -4 -7 1 -4 12 5 16 4 16 -8 2 -14 -16 -55 -18 -78
-4 -9 5 -11 4 -6 -4 10 -15 -65 -11 -76 4 -5 6 -8 5 -8 -2 0 -14 -31 -6 -42
11 -9 13 -38 17 -38 4 0 -6 7 -8 15 -4 8 3 15 2 15 -3 0 -4 -25 -8 -55 -8 -36
0 -52 4 -48 11 4 6 -1 4 -11 -3 -16 -13 -17 -13 -14 5 2 12 -2 18 -11 16 -9
-2 -11 3 -7 13 3 10 2 14 -5 10 -13 -9 -8 27 6 37 6 4 -3 7 -18 6 -22 -2 -25
-5 -14 -13 10 -7 12 -17 6 -33 -5 -14 -5 -21 0 -17 5 3 12 1 16 -5 4 -6 11 -8
16 -5 5 4 6 -2 2 -11 -4 -10 -8 -13 -10 -8 -2 6 -16 9 -31 6 -20 -3 -35 4 -56
25 -23 22 -27 24 -18 6 7 -12 17 -24 24 -26 7 -3 5 -6 -6 -6 -11 -1 -29 7 -40
17 -20 16 -20 16 -7 0 12 -16 11 -18 -11 -18 -13 0 -30 6 -37 13 -11 10 -13
10 -7 0 9 -17 -3 -16 -37 2 -15 8 -25 10 -22 4 4 -6 -15 -8 -49 -7 -31 2 -56
6 -56 10 0 5 -5 8 -11 8 -5 0 -7 -4 -4 -10 7 -11 -18 -14 -29 -3 -4 4 -46 8
-94 8 -237 3 -238 3 -251 28 -11 21 -11 21 -8 1 4 -20 1 -21 -42 -17 -61 6
-103 23 -97 38 7 18 -5 27 -19 15 -9 -7 -16 -6 -25 5 -7 8 -10 15 -6 15 3 0 1
12 -4 26 -9 21 -6 29 12 45 l23 20 -22 -11 c-18 -8 -23 -8 -25 2 0 7 -3 27 -5
43 -2 17 -5 81 -7 144 -3 106 2 123 18 61z m-1051 -60 c4 -62 3 -73 -3 -40 -9
46 -13 137 -6 129 2 -2 6 -42 9 -89z m4253 55 c24 -57 6 -125 -34 -131 -29 -5
-48 83 -27 132 18 44 42 43 61 -1z m84 14 c20 -36 12 -147 -10 -134 -4 3 -10
-1 -13 -9 -3 -7 -17 -13 -31 -13 -22 0 -24 2 -15 19 14 26 14 111 0 137 -11
20 -9 21 23 21 25 0 38 -6 46 -21z m70 -24 c7 -4 8 -11 1 -18 -7 -9 54 -12
247 -12 l257 0 -2 -75 c-1 -41 -8 -94 -15 -117 l-13 -42 -190 70 c-104 38
-199 79 -210 89 -12 11 -35 20 -51 20 -17 0 -37 6 -46 13 -18 13 -25 71 -13
101 8 19 9 19 16 -1 4 -12 13 -24 19 -28z m130 10 c0 -23 -4 -25 -41 -25 l-40
0 28 25 c36 31 53 31 53 0z m-4127 -31 c-8 -21 -23 -17 -23 6 0 13 5 18 14 14
8 -3 12 -12 9 -20z m41 9 c6 -16 -41 -102 -136 -247 -22 -32 -46 -73 -55 -90
-9 -17 -27 -48 -40 -70 l-25 -38 -35 48 c-41 58 -73 118 -73 138 0 8 34 41 76
73 42 32 104 79 138 106 43 33 67 46 83 42 25 -6 57 21 49 41 -3 8 -1 14 3 14
5 0 12 -8 15 -17z m160 -15 c-3 -4 -11 -8 -17 -8 -7 0 -6 4 3 10 11 7 11 10 2
10 -7 0 -10 5 -6 11 4 8 9 7 15 -2 4 -7 5 -17 3 -21z m1414 25 c-10 -2 -26 -2
-35 0 -10 3 -2 5 17 5 19 0 27 -2 18 -5z m-1379 -134 c25 -31 73 -86 105 -123
l59 -67 -15 -32 c-18 -38 -66 -97 -79 -97 -20 0 -100 188 -143 337 -33 115
-33 128 1 78 15 -22 47 -65 72 -96z m1528 125 c-3 -3 -12 -4 -19 -1 -8 3 -5 6
6 6 11 1 17 -2 13 -5z m60 0 c-3 -3 -12 -4 -19 -1 -8 3 -5 6 6 6 11 1 17 -2
13 -5z m-2201 -70 c2 -26 1 -44 -3 -41 -3 4 -7 28 -9 53 -2 26 -1 45 2 41 4
-3 8 -27 10 -53z m474 37 c0 -10 -7 -21 -15 -25 -20 -7 -19 -53 0 -64 12 -6
18 -42 25 -163 15 -239 14 -256 -12 -264 -25 -9 -117 -10 -124 -2 -3 3 18 125
46 271 38 195 56 266 66 266 8 0 14 -9 14 -19z m41 -46 c12 -38 13 -57 6 -64
-20 -20 -26 -11 -25 37 1 26 -2 58 -7 72 -4 14 -4 21 1 17 4 -4 16 -32 25 -62z
m84 36 c-3 -12 -11 -19 -16 -16 -5 4 -3 14 3 25 15 24 22 19 13 -9z m1898 22
c-7 -2 -21 -2 -30 0 -10 3 -4 5 12 5 17 0 24 -2 18 -5z m100 0 c-7 -2 -19 -2
-25 0 -7 3 -2 5 12 5 14 0 19 -2 13 -5z m64 -9 c-3 -3 -12 -4 -19 -1 -8 3 -5
6 6 6 11 1 17 -2 13 -5z m40 0 c-3 -3 -12 -4 -19 -1 -8 3 -5 6 6 6 11 1 17 -2
13 -5z m46 -1 c-7 -2 -19 -2 -25 0 -7 3 -2 5 12 5 14 0 19 -2 13 -5z m214 -9
c-3 -3 -12 -4 -19 -1 -8 3 -5 6 6 6 11 1 17 -2 13 -5z m1173 -34 c0 -5 -8 -10
-18 -10 -10 0 -26 -9 -35 -21 -21 -24 -41 -21 -45 8 -3 23 11 30 66 32 17 0
32 -3 32 -9z m-3724 -36 c-5 -18 -10 -24 -17 -17 -7 7 -7 17 2 31 17 27 23 20
15 -14z m74 22 c0 -17 -14 -29 -23 -20 -8 8 3 34 14 34 5 0 9 -6 9 -14z m3890
-6 c9 -6 17 -5 22 3 13 22 37 -14 27 -40 -11 -29 -30 -29 -48 -1 l-14 22 29
-19 c24 -15 27 -16 15 -2 -12 16 -8 22 12 18 5 -1 6 3 2 9 -4 7 -11 8 -18 2
-12 -9 -57 1 -57 13 0 8 13 6 30 -5z m-237 -7 c4 -3 2 -12 -4 -19 -7 -8 -6
-14 2 -20 8 -4 9 -3 5 4 -4 7 -2 12 3 12 14 0 14 -13 -1 -28 -16 -16 -23 -15
-42 4 -12 12 -13 20 -6 35 11 19 31 25 43 12z m218 -27 c0 -6 83 -90 183 -186
l184 -175 -19 -36 c-17 -35 -94 -110 -132 -131 -16 -8 -27 10 -93 149 -150
313 -175 373 -163 394 8 16 13 18 25 8 8 -6 14 -17 15 -23z m-4374 -28 c-3 -7
-5 -2 -5 12 0 14 2 19 5 13 2 -7 2 -19 0 -25z m33 22 c0 -5 -2 -10 -4 -10 -3
0 -8 5 -11 10 -3 6 -1 10 4 10 6 0 11 -4 11 -10z m4464 4 c14 -5 14 -9 0 -35
-16 -32 -26 -36 -43 -15 -9 10 -8 15 4 20 8 3 15 12 15 21 0 17 2 18 24 9z
m-346 -49 c9 3 -4 -16 -29 -42 -70 -72 -228 -260 -284 -337 l-50 -68 -60 64
c-33 35 -71 85 -85 111 l-25 48 30 25 c48 38 202 128 324 188 l111 55 26 -26
c16 -16 31 -23 42 -18z m70 -25 l-31 -69 -29 21 -30 21 48 48 c68 69 79 63 42
-21z m80 58 c-4 -12 -38 -21 -38 -9 0 12 12 21 28 21 7 0 12 -5 10 -12z
m-3433 -15 c-6 -33 -26 -76 -31 -70 -3 3 2 19 11 36 8 17 13 31 10 31 -4 0 -3
5 0 10 9 15 14 12 10 -7z m-822 -38 c12 -34 13 -46 4 -51 -7 -4 -9 -4 -5 1 4
4 3 16 -3 27 -12 22 -22 68 -15 68 2 0 11 -20 19 -45z m4303 -87 c-12 -3 -27
-6 -33 -7 -16 -1 -17 45 -2 55 7 4 9 21 6 43 -5 32 -2 29 22 -24 28 -60 28
-60 7 -67z m-4339 90 c-3 -8 -6 -5 -6 6 -1 11 2 17 5 13 3 -3 4 -12 1 -19z
m4283 -33 c-15 -18 -44 -12 -48 9 -2 9 2 24 9 33 12 13 15 13 31 -7 13 -16 15
-26 8 -35z m1384 43 c-6 -10 -5 -10 7 -1 17 14 111 11 116 -3 2 -6 -3 -11 -12
-11 -8 0 -15 3 -15 7 0 3 -10 6 -22 7 -13 0 -17 -1 -10 -4 6 -3 10 -8 8 -12
-3 -4 7 -7 22 -7 20 1 27 -4 26 -16 -1 -10 2 -15 7 -12 5 3 6 -1 3 -9 -4 -11
-19 -14 -52 -12 -26 2 -66 3 -89 4 -24 1 -43 5 -43 10 0 5 12 23 26 40 26 31
41 41 28 19z m322 -24 c-4 -10 -2 -14 6 -11 7 2 12 9 11 14 -1 5 14 9 33 10
19 0 34 -4 34 -9 0 -5 -4 -6 -10 -3 -5 3 -10 1 -10 -4 0 -14 17 -14 25 -1 9
15 45 12 51 -4 8 -20 -10 -49 -30 -52 -18 -3 -18 25 -1 39 6 5 4 7 -5 4 -8 -2
-14 -10 -12 -16 1 -6 -3 -11 -9 -11 -8 0 -8 -5 1 -15 7 -8 16 -12 21 -9 5 3 9
0 9 -6 0 -8 -7 -9 -17 -5 -10 4 -34 8 -53 9 -22 0 -34 6 -32 14 1 6 -3 12 -9
12 -5 0 -7 5 -3 12 4 6 3 8 -4 4 -17 -10 -25 12 -10 28 17 20 22 20 14 0z
m-1081 -11 c-4 -10 -9 -29 -11 -43 -8 -42 -13 -52 -26 -44 -10 5 -10 4 -1 -6
9 -10 7 -22 -10 -56 -11 -24 -25 -44 -30 -44 -5 0 -4 6 2 14 10 11 8 17 -6 25
-11 6 -13 11 -5 11 7 0 10 5 6 12 -5 7 -1 9 13 6 12 -3 20 0 20 7 0 7 -6 11
-12 8 -9 -3 -11 4 -8 22 6 30 22 43 33 25 5 -8 8 -4 8 11 1 19 6 50 11 67 1 1
6 2 12 2 7 0 8 -7 4 -17z m-648 -43 c6 0 13 -62 17 -157 3 -87 11 -198 16
-247 5 -49 7 -93 4 -98 -3 -4 -55 -8 -115 -8 -86 0 -111 3 -115 14 -14 37 76
366 137 499 11 25 14 26 29 12 9 -8 21 -15 27 -15z m-3439 -5 c-6 -14 -15 -25
-19 -25 -5 0 -3 11 3 25 6 14 15 25 19 25 5 0 3 -11 -3 -25z m5146 4 c-19 -7
-19 -8 0 -8 11 -1 17 -4 13 -7 -3 -4 -14 -4 -23 0 -13 5 -14 9 -4 21 7 8 17
12 23 8 6 -4 3 -9 -9 -14z m-201 -31 c16 -3 16 -5 -3 -35 -18 -30 -24 -33 -67
-33 -84 0 -123 10 -123 32 0 49 13 55 97 46 43 -4 86 -9 96 -10z m252 -18 c65
0 81 -10 65 -40 -11 -21 -17 -22 -91 -18 -43 3 -82 8 -86 11 -3 4 -1 19 6 33
9 20 17 25 34 20 12 -3 45 -6 72 -6z m-1194 -84 c-9 -10 -9 -16 -1 -21 8 -5 5
-12 -7 -22 -10 -8 -12 -12 -6 -8 9 4 11 1 7 -10 -4 -9 -13 -14 -21 -11 -8 3
-11 1 -8 -4 3 -6 0 -10 -7 -10 -9 0 -9 -3 2 -10 13 -8 12 -10 -3 -10 -10 0
-16 -4 -12 -9 3 -5 -3 -16 -13 -23 -11 -7 -20 -17 -20 -21 -1 -16 -111 -117
-116 -108 -4 5 16 27 44 49 27 22 47 42 45 44 -3 3 6 17 19 31 14 15 23 27 20
27 -3 0 1 10 8 23 7 12 11 26 10 30 -1 4 5 10 13 13 8 3 12 10 9 15 -3 5 0 9
5 9 6 0 10 3 10 8 -4 21 3 32 17 32 13 0 14 -3 5 -14z m749 -57 c0 -6 -4 -7
-10 -4 -5 3 -10 11 -10 16 0 6 5 7 10 4 6 -3 10 -11 10 -16z m-5372 -34 c-3
-3 -9 2 -12 12 -6 14 -5 15 5 6 7 -7 10 -15 7 -18z m481 22 c-2 -1 -15 -11
-28 -22 l-24 -20 14 23 c8 12 20 22 28 22 8 0 12 -1 10 -3z m4969 -9 c9 -9 12
-9 12 1 0 7 9 11 20 9 12 -2 21 -7 21 -13 -1 -13 -53 -15 -70 -1 -11 8 -13 8
-7 -1 5 -9 0 -13 -18 -13 -25 0 -40 12 -29 24 11 10 58 7 71 -6z m127 -10 c67
-21 265 -31 265 -13 0 6 5 3 10 -5 8 -12 10 -12 10 -1 0 8 2 12 5 9 3 -3 3
-13 -1 -22 -7 -19 -44 -22 -45 -3 0 10 -2 10 -6 0 -2 -7 -9 -13 -14 -13 -6 0
-8 4 -5 8 3 5 -1 9 -9 9 -8 0 -12 -4 -9 -9 6 -10 -20 -11 -30 -1 -4 4 -24 8
-44 9 -20 1 -55 5 -77 9 -22 4 -57 7 -77 8 -28 1 -36 5 -35 20 1 12 6 15 17
11 8 -3 29 -10 45 -16z m-5547 -23 c-3 -3 -9 2 -12 12 -6 14 -5 15 5 6 7 -7
10 -15 7 -18z m32 -15 c0 -5 -2 -10 -4 -10 -3 0 -8 5 -11 10 -3 6 -1 10 4 10
6 0 11 -4 11 -10z m325 -8 c-16 -9 -33 -16 -37 -17 -3 0 -10 -3 -14 -7 -4 -5
-12 -8 -18 -8 -6 0 7 12 29 25 22 14 47 25 55 25 8 -1 2 -8 -15 -18z m-255
-22 c0 -5 -4 -10 -9 -10 -6 0 -13 5 -16 10 -3 6 1 10 9 10 9 0 16 -4 16 -10z
m167 -36 c-3 -3 -12 -4 -19 -1 -8 3 -5 6 6 6 11 1 17 -2 13 -5z m4092 -105
c-13 -9 -26 -16 -30 -13 -4 2 -10 -3 -13 -11 -3 -8 -9 -14 -13 -13 -4 1 -20
-6 -35 -16 -15 -10 -31 -15 -36 -12 -6 3 -15 -1 -22 -9 -7 -9 -20 -15 -29 -13
-9 1 -26 -3 -38 -10 -12 -7 -26 -12 -30 -11 -4 1 -10 0 -13 -1 -3 -1 -23 -5
-45 -7 -109 -12 -271 0 -259 19 5 7 2 8 -5 3 -15 -8 -151 43 -151 57 0 5 4 7
9 3 5 -3 13 0 17 6 4 7 3 9 -4 5 -6 -3 -13 -2 -16 3 -13 21 14 20 35 -1 12
-13 18 -16 14 -8 -8 13 -7 13 9 0 10 -8 28 -16 39 -17 12 -2 26 -9 32 -15 7
-8 6 -9 -4 -3 -10 6 -12 4 -6 -4 5 -9 10 -10 18 -2 15 15 27 14 27 -4 0 -14
17 -20 47 -16 6 1 14 -3 17 -8 3 -5 25 -7 48 -5 27 4 44 1 49 -8 7 -11 9 -11
9 0 0 7 8 12 18 11 25 -3 91 12 98 22 8 14 25 0 18 -14 -4 -7 -3 -8 2 -4 5 5
9 14 9 19 0 6 6 13 14 16 9 3 11 0 7 -9 -4 -8 -2 -7 6 2 17 21 58 34 58 19 0
-6 -4 -9 -8 -6 -4 2 -14 0 -22 -5 -12 -7 -11 -8 5 -6 11 1 33 15 48 31 23 23
31 26 43 15 12 -10 13 -9 8 5 -3 9 -2 17 2 17 5 1 19 3 32 4 13 1 28 7 34 13
6 6 16 8 21 5 5 -3 -1 -14 -14 -24z"/>
<path d="M3984 2592 c-6 -4 -11 -15 -11 -25 0 -15 3 -15 16 -3 9 7 23 11 31 8
11 -4 11 -2 -2 11 -19 19 -19 19 -34 9z"/>
<path d="M4039 2528 c0 -2 -2 -11 -4 -21 -3 -15 -1 -16 11 -6 7 6 11 15 8 20
-5 9 -13 12 -15 7z"/>
<path d="M4056 2492 c-3 -5 1 -9 9 -9 8 0 12 4 9 9 -3 4 -7 8 -9 8 -2 0 -6 -4
-9 -8z"/>
<path d="M4675 2491 c-11 -5 -29 -18 -39 -30 -19 -21 -19 -21 7 -21 15 0 27 5
27 10 0 17 50 31 87 24 33 -6 34 -7 16 -26 -18 -20 -17 -20 37 -13 30 4 103 8
163 8 59 1 107 3 107 5 0 2 -25 15 -55 28 -46 21 -65 25 -108 20 -65 -7 -67
-7 -152 -1 -38 3 -79 1 -90 -4z"/>
<path d="M4110 2464 c0 -15 39 -49 47 -41 3 4 1 7 -6 7 -8 0 -11 6 -7 16 4 9
2 13 -5 8 -6 -4 -15 0 -20 7 -5 8 -9 9 -9 3z"/>
<path d="M6570 2143 c0 -6 8 -17 18 -24 16 -13 16 -13 2 6 -8 11 -16 22 -17
24 -2 2 -3 0 -3 -6z"/>
<path d="M6730 2136 c0 -2 7 -7 16 -10 8 -3 12 -2 9 4 -6 10 -25 14 -25 6z"/>
<path d="M6836 2108 c3 -5 10 -6 15 -3 13 9 11 12 -6 12 -8 0 -12 -4 -9 -9z"/>
<path d="M6757 2094 c3 -8 10 -13 15 -12 16 6 14 21 -4 24 -11 1 -15 -3 -11
-12z"/>
<path d="M6873 2095 c0 -6 6 -12 12 -12 6 0 12 6 12 12 0 6 -6 12 -12 12 -6 0
-12 -6 -12 -12z"/>
<path d="M6810 2090 c-9 -6 -10 -10 -3 -10 6 0 15 5 18 10 8 12 4 12 -15 0z"/>
<path d="M6576 1807 c3 -10 9 -15 12 -12 3 3 0 11 -7 18 -10 9 -11 8 -5 -6z"/>
<path d="M3869 2568 c-7 -23 -4 -35 7 -35 9 0 11 4 4 12 -5 7 -7 15 -3 18 3 4
3 7 0 7 -4 0 -7 -1 -8 -2z"/>
<path d="M3537 2683 c-4 -3 -7 -11 -7 -17 0 -6 5 -5 12 2 6 6 9 14 7 17 -3 3
-9 2 -12 -2z"/>
<path d="M3686 2638 c3 -4 11 -5 19 -1 21 7 19 12 -4 10 -11 0 -18 -5 -15 -9z"/>
<path d="M3690 2546 c0 -2 7 -9 15 -16 9 -7 15 -8 15 -2 0 5 -7 12 -15 16 -8
3 -15 4 -15 2z"/>
<path d="M4026 2332 c-2 -4 4 -8 14 -8 10 0 16 4 14 8 -3 4 -9 8 -14 8 -5 0
-11 -4 -14 -8z"/>
<path d="M4115 2320 c-4 -7 -2 -17 4 -23 9 -9 10 -7 5 8 -7 17 -6 18 8 7 13
-11 18 -11 24 0 4 7 4 10 -1 6 -4 -4 -14 -3 -21 3 -8 7 -14 7 -19 -1z"/>
<path d="M4208 2323 c7 -3 16 -2 19 1 4 3 -2 6 -13 5 -11 0 -14 -3 -6 -6z"/>
<path d="M4133 2261 c-1 -10 4 -18 11 -18 16 0 17 25 1 30 -6 3 -11 -3 -12
-12z"/>
<path d="M4103 2252 c2 -12 6 -24 10 -28 3 -4 4 4 2 16 -6 30 -16 40 -12 12z"/>
<path d="M4133 2216 c1 -6 -7 -10 -18 -8 -17 2 -18 1 -5 -8 40 -29 45 -29 45
-1 1 16 -5 28 -12 28 -6 0 -11 -5 -10 -11z"/>
<path d="M4425 2106 c60 -20 65 -24 37 -25 -50 -2 -171 -31 -179 -43 -4 -8 0
-9 13 -3 33 14 475 18 632 6 144 -12 494 -53 561 -67 64 -13 23 14 -62 41
-172 55 -550 102 -887 110 l-185 5 70 -24z"/>
<path d="M4166 2043 c-3 -7 0 -13 6 -13 6 0 5 -7 -3 -17 -13 -16 -12 -17 3 -4
10 7 15 17 12 22 -3 5 -1 9 4 9 14 0 23 -28 11 -34 -5 -2 -4 -3 3 -1 7 1 11 9
9 16 -2 8 -4 19 -4 24 -1 15 -36 13 -41 -2z"/>
<path d="M4091 1966 c-8 -10 -9 -16 -1 -21 6 -4 10 -3 9 2 -4 21 2 24 19 12
15 -13 16 -12 3 4 -16 21 -16 21 -30 3z"/>
<path d="M4137 1969 c7 -7 15 -10 18 -7 3 3 -2 9 -12 12 -14 6 -15 5 -6 -5z"/>
<path d="M5266 1961 c-12 -19 302 -211 345 -211 6 0 -17 22 -52 49 -35 27 -75
61 -89 76 l-25 27 30 -8 c17 -4 42 -13 57 -20 41 -21 44 -17 12 17 -48 52
-118 79 -201 79 -39 0 -74 -4 -77 -9z"/>
<path d="M4110 1931 c0 -7 -4 -9 -10 -6 -6 4 -7 -1 -3 -11 6 -15 7 -15 15 1 6
9 7 19 4 22 -3 4 -6 1 -6 -6z"/>
<path d="M4016 2282 c-3 -5 1 -9 9 -9 8 0 12 4 9 9 -3 4 -7 8 -9 8 -2 0 -6 -4
-9 -8z"/>
<path d="M3973 2225 c0 -8 4 -12 9 -9 5 3 6 10 3 15 -9 13 -12 11 -12 -6z"/>
<path d="M3977 2186 c-2 -6 -2 -17 0 -24 6 -16 33 3 33 23 0 15 -28 16 -33 1z"/>
<path d="M4019 2155 c-5 -29 -5 -74 0 -69 3 3 6 9 6 12 0 4 4 13 8 19 5 7 3
21 -2 30 -6 10 -11 14 -12 8z"/>
<path d="M4013 2053 c-7 -2 -13 -10 -13 -15 0 -6 3 -8 7 -5 3 4 13 1 22 -6 14
-10 14 -10 4 4 -7 9 -10 19 -6 22 7 8 4 8 -14 0z"/>
<path d="M4004 2009 c-4 -8 -3 -9 4 -5 7 4 12 1 12 -9 0 -10 -5 -13 -12 -9 -9
5 -9 2 1 -9 17 -21 16 -22 19 8 2 27 -13 42 -24 24z"/>
<path d="M5925 2098 c9 -98 25 -340 25 -370 l0 -28 75 0 75 0 -1 43 c-1 23 -5
67 -9 97 -6 42 -7 33 -3 -37 l5 -93 -66 0 c-60 0 -66 2 -66 21 0 28 -19 303
-25 367 l-5 53 57 -3 58 -3 11 -80 c7 -49 12 -66 13 -43 1 27 6 38 21 43 21 7
49 -5 70 -29 11 -14 9 -16 -13 -16 -14 0 -29 5 -32 10 -3 6 -9 10 -13 10 -13
0 -34 -86 -29 -116 3 -24 4 -21 6 11 1 34 3 37 12 22 10 -18 12 -18 34 3 35
33 68 19 63 -26 -5 -45 14 -39 26 8 19 77 -27 168 -85 168 -18 0 -33 -7 -41
-20 -18 -28 -28 -25 -28 9 0 56 -7 61 -76 61 l-65 0 6 -62z"/>
<path d="M5957 1998 c3 -40 8 -113 12 -163 l6 -90 45 -3 c41 -2 43 -1 26 13
-10 8 -23 16 -29 18 -5 1 -20 67 -32 146 -13 78 -25 145 -28 147 -2 3 -2 -28
0 -68z"/>
<path d="M6296 2027 c3 -10 9 -15 12 -12 3 3 0 11 -7 18 -10 9 -11 8 -5 -6z"/>
<path d="M6337 2008 c-18 -19 -15 -39 6 -37 9 0 8 2 -1 6 -18 7 -4 23 16 17
15 -5 15 -4 2 6 -13 10 -11 11 8 7 26 -6 29 -1 5 11 -13 6 -23 3 -36 -10z"/>
<path d="M6142 1868 c-18 -18 -14 -28 12 -28 25 0 54 -26 42 -37 -4 -4 -16 -1
-28 6 -24 15 -38 2 -38 -35 0 -30 9 -35 35 -18 33 21 58 8 51 -27 -8 -41 10
-36 24 6 27 83 -47 184 -98 133z"/>
<path d="M6324 1828 c2 -8 15 -12 31 -11 22 2 26 0 17 -9 -7 -7 -12 -16 -12
-22 0 -5 6 -1 14 9 18 25 11 36 -19 31 -13 -3 -26 0 -29 5 -2 5 -3 4 -2 -3z"/>
<path d="M404 2089 c0 -13 3 -15 13 -7 7 6 13 12 13 13 0 2 -6 5 -13 8 -7 3
-13 -3 -13 -14z"/>
<path d="M390 2011 c7 -13 7 -22 0 -26 -10 -6 -14 1 -11 18 1 5 -3 6 -8 3 -5
-3 -8 -14 -6 -24 2 -9 4 -19 4 -21 1 -2 9 3 19 12 10 10 22 14 27 10 4 -5 0 4
-10 20 -20 31 -31 37 -15 8z"/>
<path d="M365 1831 c-3 -5 -1 -12 5 -16 5 -3 10 1 10 9 0 18 -6 21 -15 7z"/>
<path d="M1347 1880 c7 -25 -22 -28 -31 -3 -6 15 -8 15 -16 3 -11 -19 6 -41
27 -33 8 3 18 0 22 -6 5 -7 8 0 9 18 0 17 -3 33 -8 36 -4 3 -6 -4 -3 -15z"/>
<path d="M1260 1876 c0 -8 4 -17 9 -20 5 -4 7 3 4 14 -6 23 -13 26 -13 6z"/>
<path d="M793 1853 c-12 -13 -18 -23 -14 -23 5 0 14 7 21 15 11 13 15 13 21 3
7 -11 9 -11 9 0 0 7 5 10 12 6 7 -4 8 -3 4 5 -4 6 -11 9 -16 6 -4 -3 -10 -2
-12 2 -1 5 -13 -2 -25 -14z"/>
<path d="M1557 1866 c-4 -10 -3 -15 3 -11 6 3 10 1 10 -6 0 -7 3 -10 6 -6 3 3
2 13 -4 22 -8 16 -9 16 -15 1z"/>
<path d="M737 1847 c-3 -8 1 -14 8 -14 7 0 11 6 8 14 -3 7 -6 13 -8 13 -2 0
-5 -6 -8 -13z"/>
<path d="M1378 1811 c4 -10 7 -11 10 -3 2 7 8 10 12 7 5 -3 11 -2 14 3 2 4 -6
8 -19 8 -16 0 -21 -4 -17 -15z"/>
<path d="M1626 1807 c3 -10 9 -15 12 -12 3 3 0 11 -7 18 -10 9 -11 8 -5 -6z"/>
<path d="M830 1800 c0 -5 5 -10 11 -10 5 0 7 5 4 10 -3 6 -8 10 -11 10 -2 0
-4 -4 -4 -10z"/>
<path d="M1606 1797 c3 -10 9 -15 12 -12 3 3 0 11 -7 18 -10 9 -11 8 -5 -6z"/>
<path d="M375 1730 c-3 -6 1 -7 9 -4 18 7 21 14 7 14 -6 0 -13 -4 -16 -10z"/>
<path d="M499 1738 c-7 -23 -4 -35 7 -35 9 0 11 4 4 12 -5 7 -7 15 -3 18 3 4
3 7 0 7 -4 0 -7 -1 -8 -2z"/>
<path d="M707 1719 c7 -7 15 -10 18 -7 3 3 -2 9 -12 12 -14 6 -15 5 -6 -5z"/>
<path d="M648 1903 c7 -3 16 -2 19 1 4 3 -2 6 -13 5 -11 0 -14 -3 -6 -6z"/>
<path d="M643 1855 c0 -8 4 -12 9 -9 5 3 6 10 3 15 -9 13 -12 11 -12 -6z"/>
<path d="M643 1782 c1 -14 5 -18 11 -12 7 7 6 14 -1 21 -9 9 -12 7 -10 -9z"/>
<path d="M3831 1844 c0 -11 3 -14 6 -6 3 7 2 16 -1 19 -3 4 -6 -2 -5 -13z"/>
<path d="M7256 1532 c-2 -4 -1 -14 3 -21 6 -10 10 -9 14 3 6 16 -8 32 -17 18z"/>
<path d="M1142 1531 c-7 -4 -16 -25 -19 -46 -4 -27 -3 -36 5 -31 7 4 12 20 12
37 0 16 5 29 11 29 7 0 10 -13 7 -34 -2 -19 0 -32 4 -30 10 7 10 71 0 78 -4 2
-14 1 -20 -3z"/>
<path d="M2274 1708 c-5 -7 -2 -8 6 -3 10 6 12 4 7 -8 -5 -14 -3 -15 19 -5 13
6 22 13 20 15 -10 10 -46 10 -52 1z"/>
<path d="M2245 1700 c-3 -5 -1 -10 4 -10 6 0 11 5 11 10 0 6 -2 10 -4 10 -3 0
-8 -4 -11 -10z"/>
<path d="M4920 1501 c-15 -28 -13 -33 10 -21 23 12 22 16 21 -90 l0 -65 16 82
c13 67 13 85 3 98 -17 21 -37 19 -50 -4z"/>
<path d="M4627 1434 c-15 -15 -6 -62 15 -80 21 -19 21 -19 14 1 -16 39 -18 55
-9 55 13 0 56 -48 82 -92 27 -46 34 -48 19 -7 -27 79 -95 148 -121 123z"/>
<path d="M6687 1659 c7 -7 15 -10 18 -7 3 3 -2 9 -12 12 -14 6 -15 5 -6 -5z"/>
<path d="M2530 1709 c0 -6 -7 -8 -17 -4 -16 5 -16 4 -3 -7 8 -7 19 -19 26 -27
9 -11 10 -7 6 17 -4 31 -12 44 -12 21z"/>
<path d="M2695 1710 c-4 -6 -12 -7 -18 -3 -7 4 -6 -1 2 -10 10 -13 17 -15 27
-6 8 6 11 15 8 20 -7 12 -11 11 -19 -1z"/>
<path d="M2819 1715 c-1 -3 -2 -8 -3 -12 -1 -5 -5 -14 -10 -21 -4 -7 -5 -16
-2 -19 3 -4 6 -1 6 6 0 7 4 10 9 6 6 -3 8 3 6 14 -3 16 1 19 22 15 15 -3 22
-1 18 6 -6 10 -44 14 -46 5z"/>
<path d="M3134 1709 c-3 -5 -2 -9 3 -8 20 3 25 -2 14 -15 -8 -10 -9 -16 -1
-21 6 -4 9 -1 8 7 -2 7 5 12 14 12 10 -1 15 3 11 9 -4 7 0 8 13 3 15 -6 16 -4
7 5 -15 15 -61 20 -69 8z"/>
<path d="M3247 1707 c4 -6 0 -8 -9 -5 -8 4 -15 1 -15 -6 0 -6 8 -12 18 -12 10
0 16 3 13 7 -2 4 4 9 13 11 15 3 14 5 -5 10 -14 4 -20 2 -15 -5z"/>
<path d="M3425 1701 c-3 -5 -1 -12 5 -16 5 -3 10 1 10 9 0 18 -6 21 -15 7z"/>
<path d="M3685 1701 c-6 -10 11 -24 32 -27 7 -1 16 3 20 8 3 7 1 8 -5 4 -7 -4
-12 -1 -12 6 0 9 -3 9 -10 -2 -9 -13 -14 -7 -11 13 1 10 -7 9 -14 -2z"/>
<path d="M3730 1706 c0 -2 7 -7 16 -10 8 -3 12 -2 9 4 -6 10 -25 14 -25 6z"/>
<path d="M3885 1700 c-4 -6 -11 -8 -16 -5 -5 3 -6 -1 -2 -11 5 -15 7 -15 15 0
5 9 14 13 20 10 7 -4 8 -2 4 4 -9 15 -13 15 -21 2z"/>
<path d="M3396 1683 c-4 -9 -4 -14 0 -10 4 4 14 1 23 -6 14 -11 15 -10 1 8 -8
11 -15 21 -16 23 -1 2 -5 -5 -8 -15z"/>
<path d="M2502 1667 c-8 -10 -6 -13 7 -13 11 0 17 6 14 13 -3 7 -6 13 -8 13
-1 0 -7 -6 -13 -13z"/>
<path d="M2695 1661 c-3 -5 0 -13 6 -17 7 -4 9 -3 5 4 -3 5 0 13 6 15 9 4 10
6 1 6 -6 1 -14 -3 -18 -8z"/>
<path d="M2973 1654 c0 -7 4 -11 8 -8 4 2 10 -2 12 -8 4 -8 6 -7 6 3 1 9 -5
19 -12 22 -8 3 -14 -1 -14 -9z"/>
<path d="M3068 1647 c4 -14 7 -16 13 -5 12 19 11 25 -5 25 -8 0 -11 -8 -8 -20z"/>
<path d="M3206 1653 c-7 -18 9 -24 36 -14 12 6 17 10 10 10 -7 1 -11 5 -8 9 2
4 -4 8 -14 8 -11 0 -22 -6 -24 -13z"/>
<path d="M3306 1658 c3 -5 10 -6 15 -3 13 9 11 12 -6 12 -8 0 -12 -4 -9 -9z"/>
<path d="M3382 1651 c8 -14 21 -27 28 -29 7 -3 10 0 6 7 -9 13 -5 14 28 1 14
-5 27 -6 30 -2 4 8 -15 12 -59 15 -11 0 -26 8 -34 16 -10 12 -9 9 1 -8z"/>
<path d="M3446 1658 c3 -5 10 -6 15 -3 13 9 11 12 -6 12 -8 0 -12 -4 -9 -9z"/>
<path d="M3599 1659 c-12 -7 -12 -9 1 -9 13 0 13 -1 0 -10 -8 -5 -10 -10 -5
-10 6 1 18 7 28 14 14 11 15 15 4 19 -8 3 -20 1 -28 -4z"/>
<path d="M2811 1651 c-10 -7 -7 -9 12 -8 14 1 23 5 20 10 -6 9 -15 9 -32 -2z"/>
<path d="M3026 1647 c3 -10 9 -15 12 -12 3 3 0 11 -7 18 -10 9 -11 8 -5 -6z"/>
<path d="M3344 1648 c-5 -7 -3 -8 6 -3 9 6 12 4 8 -7 -4 -8 0 -15 7 -15 10 0
11 5 4 19 -11 21 -15 22 -25 6z"/>
<path d="M3768 1653 c7 -3 16 -2 19 1 4 3 -2 6 -13 5 -11 0 -14 -3 -6 -6z"/>
<path d="M3290 1641 c0 -6 3 -11 8 -12 4 0 15 -2 25 -4 11 -2 16 0 12 3 -4 4
-10 7 -13 7 -4 0 -13 4 -19 8 -8 5 -13 4 -13 -2z"/>
<path d="M4005 1641 c-3 -5 -2 -12 3 -15 5 -3 9 1 9 9 0 17 -3 19 -12 6z"/>
<path d="M3840 1622 c0 -4 10 -9 22 -9 18 -2 20 0 8 7 -18 12 -30 13 -30 2z"/>
<path d="M939 1458 c-1 -7 0 -20 1 -28 3 -21 68 -91 75 -81 6 10 -20 88 -36
108 -14 16 -39 17 -40 1z m56 -63 l16 -40 -30 35 c-32 36 -46 89 -16 60 8 -8
21 -33 30 -55z"/>
<path d="M2370 1631 c0 -6 4 -13 10 -16 6 -3 7 1 4 9 -7 18 -14 21 -14 7z"/>
<path d="M1288 1388 c-9 -7 -24 -26 -33 -43 l-18 -30 27 33 c30 35 59 44 50
15 -5 -17 -5 -17 6 0 19 30 -3 48 -32 25z"/>
<path d="M5217 1316 c4 -20 -3 -30 -37 -55 -52 -37 -43 -41 15 -6 52 30 72 85
31 85 -9 0 -12 -9 -9 -24z"/>
<path d="M5460 1411 c0 -6 4 -13 10 -16 6 -3 7 1 4 9 -7 18 -14 21 -14 7z"/>
<path d="M5485 1331 c-3 -6 -1 -11 5 -11 6 0 9 -4 5 -9 -3 -5 -1 -12 4 -16 6
-3 8 4 6 16 -5 27 -11 33 -20 20z"/>
<path d="M832 1221 c-8 -5 -12 -17 -10 -27 4 -23 50 -30 99 -15 32 9 31 9 -23
10 -36 1 -58 5 -58 12 0 8 17 10 53 6 l52 -6 -35 14 c-42 16 -60 18 -78 6z"/>
<path d="M4449 1131 l-24 -20 22 -22 c25 -26 104 -36 168 -21 l40 9 -50 7
c-27 4 -69 9 -93 12 -64 8 -48 29 19 27 l54 -1 -40 13 c-55 19 -69 18 -96 -4z"/>
<path d="M4598 1113 c7 -3 16 -2 19 1 4 3 -2 6 -13 5 -11 0 -14 -3 -6 -6z"/>
<path d="M1273 1143 c-18 -2 -33 -8 -33 -12 0 -9 80 -35 86 -28 3 3 -7 8 -23
11 -21 6 -24 9 -12 17 17 10 73 12 83 2 4 -4 -3 -15 -16 -25 -27 -20 -11 -25
17 -4 11 8 16 19 12 30 -6 16 -36 18 -114 9z"/>
<path d="M5020 1160 c-12 -7 -10 -9 7 -7 12 0 19 5 17 9 -6 10 -6 10 -24 -2z"/>
<path d="M1640 997 c0 -2 6 -10 14 -16 11 -9 16 -9 22 1 4 7 4 10 -1 6 -4 -4
-14 -3 -22 3 -7 6 -13 9 -13 6z"/>
<path d="M1687 923 c3 -7 9 -10 14 -7 14 8 11 21 -5 21 -8 0 -12 -6 -9 -14z"/>
<path d="M1653 914 c0 -16 13 -19 21 -5 3 5 0 11 -7 14 -8 3 -14 -1 -14 -9z"/>
<path d="M1699 888 c7 -10 19 -14 28 -11 12 5 14 3 8 -7 -5 -9 -4 -11 4 -6 15
9 3 29 -14 22 -7 -2 -19 1 -26 7 -11 10 -11 9 0 -5z"/>
<path d="M1700 849 c0 -5 5 -7 10 -4 6 3 10 8 10 11 0 2 -4 4 -10 4 -5 0 -10
-5 -10 -11z"/>
<path d="M1720 829 c0 -5 5 -7 10 -4 6 3 10 8 10 11 0 2 -4 4 -10 4 -5 0 -10
-5 -10 -11z"/>
<path d="M1730 810 c-8 -5 -12 -12 -9 -15 4 -3 12 1 19 10 14 17 11 19 -10 5z"/>
<path d="M1930 805 c0 -8 29 -12 39 -5 9 5 4 8 -13 8 -14 0 -26 -2 -26 -3z"/>
<path d="M1875 777 c-11 -11 -14 -17 -7 -13 8 5 19 1 28 -10 13 -18 14 -17 8
11 -4 17 -7 31 -8 31 -1 1 -10 -8 -21 -19z"/>
<path d="M2504 772 c3 -5 1 -12 -6 -14 -8 -3 -9 -6 -1 -11 6 -4 13 0 17 8 3 8
0 17 -6 21 -6 4 -8 3 -4 -4z"/>
<path d="M2730 756 c0 -2 7 -7 16 -10 8 -3 12 -2 9 4 -6 10 -25 14 -25 6z"/>
<path d="M2775 749 c-4 -6 -4 -13 -1 -16 3 -4 6 -1 6 6 0 7 5 9 12 5 7 -4 8
-3 4 4 -9 15 -13 15 -21 1z"/>
<path d="M2547 739 c7 -7 15 -10 18 -7 3 3 -2 9 -12 12 -14 6 -15 5 -6 -5z"/>
<path d="M2966 741 c-4 -5 -22 -8 -41 -6 -19 2 -38 -2 -42 -8 -4 -6 -1 -7 6
-2 8 4 26 -2 44 -15 18 -13 29 -20 25 -15 -4 4 -3 16 3 27 14 26 38 6 34 -28
-1 -13 2 -27 8 -31 6 -3 7 -1 3 5 -3 6 0 14 8 19 11 6 12 11 3 23 -21 27 -45
41 -51 31z"/>
<path d="M3017 740 c7 -8 20 -15 29 -16 9 -1 13 1 9 4 -4 4 -10 7 -13 7 -4 0
-14 4 -22 9 -12 7 -13 6 -3 -4z"/>
<path d="M2810 735 c0 -2 10 -10 23 -16 20 -11 21 -11 8 4 -13 16 -31 23 -31
12z"/>
<path d="M2541 713 c7 -12 15 -20 18 -17 3 2 -3 12 -13 22 -17 16 -18 16 -5
-5z"/>
<path d="M2746 722 c-3 -5 1 -9 9 -9 8 0 12 4 9 9 -3 4 -7 8 -9 8 -2 0 -6 -4
-9 -8z"/>
<path d="M3377 708 c-2 -7 -1 -22 4 -33 6 -16 8 -14 8 13 1 33 -4 41 -12 20z"/>
<path d="M3427 703 c3 -7 6 -13 8 -13 2 0 5 6 8 13 3 8 -1 14 -8 14 -7 0 -11
-6 -8 -14z"/>
<path d="M2889 698 c-11 -8 -11 -9 4 -4 9 3 17 1 17 -5 0 -6 4 -8 9 -5 5 4 12
0 14 -6 4 -10 6 -10 6 -1 1 19 -33 33 -50 21z"/>
<path d="M3046 698 c3 -5 10 -6 15 -3 13 9 11 12 -6 12 -8 0 -12 -4 -9 -9z"/>
<path d="M3400 697 c0 -9 4 -18 9 -21 5 -4 8 1 7 9 -3 21 -16 31 -16 12z"/>
<path d="M3317 679 c-9 -12 -17 -16 -20 -9 -4 7 -5 7 -3 -1 3 -18 18 -15 34 9
18 28 8 29 -11 1z"/>
<path d="M3246 682 c-3 -6 -1 -14 5 -17 15 -10 25 3 12 16 -7 7 -13 7 -17 1z"/>
<path d="M3040 675 c0 -7 30 -13 34 -7 3 4 -4 9 -15 9 -10 1 -19 0 -19 -2z"/>
<path d="M4830 1015 c-11 -13 -10 -14 4 -9 9 3 16 10 16 15 0 13 -6 11 -20 -6z"/>
<path d="M5263 1025 c42 -25 34 -38 -20 -32 -44 5 -46 4 -23 -9 35 -19 89 -18
97 2 8 20 -14 41 -52 49 l-30 6 28 -16z"/>
<path d="M891 954 c-24 -30 -26 -40 -10 -50 6 -3 23 6 38 21 l26 27 -27 -17
c-33 -21 -36 -10 -6 22 12 13 17 23 10 23 -6 0 -20 -12 -31 -26z"/>
<path d="M1270 878 c0 -21 0 -21 -21 -2 -22 19 -22 19 -10 -3 16 -31 41 -30
41 2 0 14 -2 25 -5 25 -3 0 -5 -10 -5 -22z"/>
<path d="M1050 843 c0 -18 11 -43 21 -43 4 0 14 10 20 23 11 20 11 21 -4 9
-13 -11 -17 -10 -26 5 -6 10 -11 13 -11 6z"/>
<path d="M5065 820 c5 -8 22 -32 38 -52 19 -24 27 -43 23 -54 -6 -15 -12 -13
-42 17 l-36 34 16 -32 c19 -37 47 -56 79 -51 30 4 32 28 5 67 -23 34 -100 99
-83 71z"/>
<path d="M4669 864 c-7 -9 -33 -29 -57 -46 -37 -26 -48 -29 -63 -19 -26 16
-31 14 -27 -11 4 -32 49 -36 87 -8 34 24 97 100 83 100 -5 0 -15 -7 -23 -16z"/>
<path d="M4870 896 c0 -2 7 -7 16 -10 8 -3 12 -2 9 4 -6 10 -25 14 -25 6z"/>
<path d="M6316 878 c-6 -21 -7 -21 -17 -5 -13 22 -26 22 -38 -1 -7 -14 -6 -19
4 -19 7 0 11 6 8 14 -3 7 -1 13 5 13 5 0 13 -7 16 -16 6 -15 8 -15 26 1 21 19
26 35 11 35 -5 0 -12 -10 -15 -22z"/>
<path d="M6336 848 c3 -5 10 -6 15 -3 13 9 11 12 -6 12 -8 0 -12 -4 -9 -9z"/>
<path d="M6639 838 c-8 -15 -6 -18 18 -17 17 1 21 3 11 6 -10 2 -18 9 -18 14
0 6 4 8 8 5 4 -2 14 -1 22 4 11 7 9 9 -8 7 -13 -1 -28 -9 -33 -19z"/>
<path d="M4862 720 c-3 -49 -19 -111 -31 -123 -15 -15 -41 10 -42 42 l-1 26
-8 -28 c-10 -34 -4 -54 20 -67 45 -24 74 33 68 130 -3 35 -5 42 -6 20z"/>
<path d="M6218 613 c7 -3 16 -2 19 1 4 3 -2 6 -13 5 -11 0 -14 -3 -6 -6z"/>
<path d="M5165 389 c-4 -6 -5 -12 -2 -15 2 -3 7 2 10 11 7 17 1 20 -8 4z"/>
<path d="M5100 350 c-9 -6 -10 -10 -3 -10 6 0 15 5 18 10 8 12 4 12 -15 0z"/>
<path d="M4570 344 c0 -2 10 -8 21 -15 17 -8 20 -8 17 2 -4 11 -38 23 -38 13z"/>
</g>
</svg>