<!-- icon666.com - MILLIONS OF FREE VECTOR ICONS -->
<svg viewBox="0 0 64 64" xmlns="http://www.w3.org/2000/svg">
    <g id="_07-dick_toy" data-name="07-dick toy" transform="rotate(180, 32, 32)">
        <path d="m43.76 8.942a5.789 5.789 0 0 0 -3.637-4.519 4.6 4.6 0 0 1 -2.5-2.184 2.24 2.24 0 0 0 -2-1.239 2.241 2.241 0 0 0 -2.126 1.532 2.915 2.915 0 0 1 -1.7 1.841 5.822 5.822 0 0 0 -3.797 5.455v7.172h17z"
              fill="#96d6f1"></path>
        <path d="m28.82 21a190.192 190.192 0 0 0 .18 28l-1.664-1.426a11.291 11.291 0 0 0 -11.8-1.8 11.29 11.29 0 0 0 -6.8 11.4 3.111 3.111 0 0 0 3.106 2.826h37.158a131.177 131.177 0 0 0 -4.6-39z"
              fill="#f4794f"></path>
        <path d="m44.4 21h-3a131.177 131.177 0 0 1 4.6 39h3a131.177 131.177 0 0 0 -4.6-39z" fill="#eb501c"></path>
        <path d="m18 60h26a3 3 0 0 1 3 3 0 0 0 0 1 0 0h-32a0 0 0 0 1 0 0 3 3 0 0 1 3-3z" fill="#b75b3b"></path>
        <path d="m14.031 53.88a1.023 1.023 0 0 1 -.244-.029 1 1 0 0 1 -.727-1.213 6.115 6.115 0 0 1 5.94-4.638 1 1 0 0 1 0 2 4.117 4.117 0 0 0 -4 3.123 1 1 0 0 1 -.969.757z"
              fill="#b75b3b"></path>
        <rect fill="#568da4" height="4" rx="2" width="23" x="25" y="17"></rect>
        <g fill="#fff">
            <ellipse cx="38.5" cy="7.5" rx="1.5" ry="2.5"
                     transform="matrix(.353 -.936 .936 .353 17.907 40.883)"></ellipse>
            <ellipse cx="40.5" cy="11" rx="1" ry="1.5" transform="matrix(.531 -.847 .847 .531 9.67 39.474)"></ellipse>
        </g>
    </g>
</svg>